G04 #@! TF.FileFunction,Copper,L1,Top,Signal*
%FSLAX46Y46*%
G04 Gerber Fmt 4.6, Leading zero omitted, Abs format (unit mm)*
G04 Created by KiCad (PCBNEW no-vcs-found-product) date 20.07.2015 (пн) 10,43,06 EEST*
%MOMM*%
G01*
G04 APERTURE LIST*
%ADD10C,0.100000*%
%ADD11C,0.838200*%
%ADD12C,0.900000*%
%ADD13R,1.524000X1.524000*%
%ADD14C,1.524000*%
%ADD15R,1.800000X1.800000*%
%ADD16C,1.800000*%
%ADD17R,1.030000X1.060000*%
%ADD18R,1.016000X1.016000*%
%ADD19R,3.500000X1.600000*%
%ADD20R,1.200000X0.550000*%
%ADD21R,1.300000X1.050000*%
%ADD22R,1.524000X1.270000*%
%ADD23R,1.050000X1.300000*%
%ADD24C,1.000000*%
%ADD25C,0.609600*%
%ADD26C,0.508000*%
%ADD27C,1.016000*%
%ADD28C,0.762000*%
%ADD29C,0.736600*%
%ADD30C,0.304800*%
%ADD31C,0.254000*%
G04 APERTURE END LIST*
D10*
D11*
X22352000Y-25387300D03*
X22352000Y-22707600D03*
D12*
X31521400Y-23672800D03*
X26962100Y-19304000D03*
X31584900Y-19100800D03*
X20574000Y-25971500D03*
D13*
X29464000Y-21082000D03*
D14*
X29464000Y-26162000D03*
D15*
X35560000Y-21590000D03*
D16*
X35560000Y-19050000D03*
D15*
X36830000Y-27940000D03*
D16*
X34290000Y-27940000D03*
D17*
X37211000Y-24130000D03*
X35433000Y-24130000D03*
D18*
X22987000Y-21463000D03*
X21209000Y-21463000D03*
D19*
X21336000Y-19615000D03*
X21336000Y-17215000D03*
D18*
X19431000Y-21463000D03*
X19431000Y-23241000D03*
X19431000Y-24511000D03*
X19431000Y-26289000D03*
X33782000Y-17399000D03*
X33782000Y-19177000D03*
D11*
X22288500Y-24003000D03*
D12*
X24828500Y-21272500D03*
D20*
X21052000Y-22926000D03*
X21052000Y-23876000D03*
X21052000Y-24826000D03*
X23652000Y-24826000D03*
X23652000Y-23876000D03*
X23652000Y-22926000D03*
D21*
X24511000Y-17135500D03*
X24511000Y-19440500D03*
D22*
X29083000Y-17399000D03*
X27051000Y-17399000D03*
D18*
X30734000Y-16891000D03*
X32512000Y-16891000D03*
D23*
X24139500Y-26416000D03*
X21834500Y-26416000D03*
X24139500Y-28321000D03*
X21834500Y-28321000D03*
D24*
X19812000Y-27813000D03*
X36830000Y-17145000D03*
D25*
X23652000Y-23876000D02*
X24866600Y-23876000D01*
X24866600Y-23876000D02*
X25425400Y-24434800D01*
D26*
X24831000Y-24826000D02*
X25034200Y-24826000D01*
X25034200Y-24826000D02*
X25425400Y-24434800D01*
X23652000Y-24826000D02*
X24831000Y-24826000D01*
X24831000Y-24826000D02*
X24841200Y-24815800D01*
D27*
X25425400Y-25603200D02*
X25425400Y-24434800D01*
X25425400Y-25603200D02*
X24612600Y-26416000D01*
X36830000Y-27940000D02*
X36830000Y-27305000D01*
X36830000Y-27305000D02*
X35382200Y-25857200D01*
X35382200Y-25857200D02*
X32969200Y-25857200D01*
X32969200Y-25857200D02*
X30505400Y-28321000D01*
X30505400Y-28321000D02*
X24139500Y-28321000D01*
X24139500Y-26416000D02*
X24612600Y-26416000D01*
X24139500Y-28321000D02*
X24139500Y-26416000D01*
D28*
X22288500Y-24003000D02*
X22288500Y-22720300D01*
X22288500Y-22720300D02*
X22301200Y-22707600D01*
D29*
X24511000Y-19440500D02*
X24511000Y-20955000D01*
X24511000Y-20955000D02*
X24828500Y-21272500D01*
D28*
X22288500Y-24003000D02*
X22288500Y-25962000D01*
X22288500Y-25962000D02*
X21834500Y-26416000D01*
D25*
X21052000Y-23876000D02*
X22161500Y-23876000D01*
X22161500Y-23876000D02*
X22288500Y-24003000D01*
D27*
X21834500Y-26416000D02*
X21834500Y-28321000D01*
X21834500Y-26416000D02*
X21018500Y-26416000D01*
X21018500Y-26416000D02*
X20574000Y-25971500D01*
X19431000Y-26289000D02*
X20256500Y-26289000D01*
X20256500Y-26289000D02*
X20574000Y-25971500D01*
D26*
X33782000Y-17399000D02*
X34925000Y-17399000D01*
X35560000Y-18034000D02*
X35560000Y-19050000D01*
X34925000Y-17399000D02*
X35560000Y-18034000D01*
X32512000Y-16891000D02*
X33274000Y-16891000D01*
X33274000Y-16891000D02*
X33782000Y-17399000D01*
X19431000Y-21463000D02*
X19431000Y-21272500D01*
X19431000Y-21272500D02*
X18923000Y-20764500D01*
X18923000Y-20764500D02*
X18923000Y-17602200D01*
X18923000Y-17602200D02*
X19265900Y-17259300D01*
X19265900Y-17259300D02*
X21291700Y-17259300D01*
X21291700Y-17259300D02*
X21336000Y-17215000D01*
D27*
X24511000Y-17135500D02*
X21415500Y-17135500D01*
X21415500Y-17135500D02*
X21336000Y-17215000D01*
X24511000Y-17135500D02*
X26787500Y-17135500D01*
X26787500Y-17135500D02*
X27051000Y-17399000D01*
D26*
X33782000Y-19177000D02*
X33782000Y-23622000D01*
X34290000Y-24130000D02*
X35433000Y-24130000D01*
X33782000Y-23622000D02*
X34290000Y-24130000D01*
X22987000Y-21463000D02*
X23139400Y-21463000D01*
X23139400Y-21463000D02*
X23652000Y-21975600D01*
X23652000Y-21975600D02*
X23652000Y-22926000D01*
D27*
X21336000Y-19615000D02*
X22434400Y-19615000D01*
X22434400Y-19615000D02*
X22987000Y-20167600D01*
X22987000Y-20167600D02*
X22987000Y-21463000D01*
D26*
X21052000Y-22926000D02*
X21052000Y-21620000D01*
X21052000Y-21620000D02*
X21209000Y-21463000D01*
D30*
X21052000Y-24826000D02*
X19746000Y-24826000D01*
X19746000Y-24826000D02*
X19431000Y-24511000D01*
D28*
X19431000Y-24511000D02*
X19431000Y-23241000D01*
D27*
X29083000Y-17399000D02*
X29083000Y-18643600D01*
X29464000Y-19024600D02*
X29464000Y-21082000D01*
X29083000Y-18643600D02*
X29464000Y-19024600D01*
D26*
X29083000Y-17399000D02*
X30226000Y-17399000D01*
X30226000Y-17399000D02*
X30734000Y-16891000D01*
D28*
X37211000Y-24130000D02*
X37211000Y-21971000D01*
X37211000Y-21971000D02*
X36830000Y-21590000D01*
X36830000Y-21590000D02*
X35560000Y-21590000D01*
D31*
G36*
X20674500Y-26130250D02*
X20833250Y-26289000D01*
X21707500Y-26289000D01*
X21707500Y-26269000D01*
X21961500Y-26269000D01*
X21961500Y-26289000D01*
X21981500Y-26289000D01*
X21981500Y-26543000D01*
X21961500Y-26543000D01*
X21961500Y-28194000D01*
X21981500Y-28194000D01*
X21981500Y-28448000D01*
X21687500Y-28448000D01*
X21687500Y-28194000D01*
X21707500Y-28194000D01*
X21707500Y-26543000D01*
X20833250Y-26543000D01*
X20674500Y-26701750D01*
X20674500Y-27070472D01*
X20560391Y-26956164D01*
X20574000Y-26923309D01*
X20574000Y-26574750D01*
X20415250Y-26416000D01*
X19558000Y-26416000D01*
X19558000Y-26436000D01*
X19304000Y-26436000D01*
X19304000Y-26416000D01*
X19284000Y-26416000D01*
X19284000Y-26162000D01*
X19304000Y-26162000D01*
X19304000Y-26142000D01*
X19558000Y-26142000D01*
X19558000Y-26162000D01*
X20415250Y-26162000D01*
X20574000Y-26003250D01*
X20574000Y-25748440D01*
X20674500Y-25748440D01*
X20674500Y-26130250D01*
X20674500Y-26130250D01*
G37*
X20674500Y-26130250D02*
X20833250Y-26289000D01*
X21707500Y-26289000D01*
X21707500Y-26269000D01*
X21961500Y-26269000D01*
X21961500Y-26289000D01*
X21981500Y-26289000D01*
X21981500Y-26543000D01*
X21961500Y-26543000D01*
X21961500Y-28194000D01*
X21981500Y-28194000D01*
X21981500Y-28448000D01*
X21687500Y-28448000D01*
X21687500Y-28194000D01*
X21707500Y-28194000D01*
X21707500Y-26543000D01*
X20833250Y-26543000D01*
X20674500Y-26701750D01*
X20674500Y-27070472D01*
X20560391Y-26956164D01*
X20574000Y-26923309D01*
X20574000Y-26574750D01*
X20415250Y-26416000D01*
X19558000Y-26416000D01*
X19558000Y-26436000D01*
X19304000Y-26436000D01*
X19304000Y-26416000D01*
X19284000Y-26416000D01*
X19284000Y-26162000D01*
X19304000Y-26162000D01*
X19304000Y-26142000D01*
X19558000Y-26142000D01*
X19558000Y-26162000D01*
X20415250Y-26162000D01*
X20574000Y-26003250D01*
X20574000Y-25748440D01*
X20674500Y-25748440D01*
X20674500Y-26130250D01*
G36*
X34483748Y-27925858D02*
X34469605Y-27940000D01*
X34483748Y-27954143D01*
X34304143Y-28133748D01*
X34290000Y-28119605D01*
X34275858Y-28133748D01*
X34096253Y-27954143D01*
X34110395Y-27940000D01*
X34096253Y-27925858D01*
X34275858Y-27746253D01*
X34290000Y-27760395D01*
X34304143Y-27746253D01*
X34483748Y-27925858D01*
X34483748Y-27925858D01*
G37*
X34483748Y-27925858D02*
X34469605Y-27940000D01*
X34483748Y-27954143D01*
X34304143Y-28133748D01*
X34290000Y-28119605D01*
X34275858Y-28133748D01*
X34096253Y-27954143D01*
X34110395Y-27940000D01*
X34096253Y-27925858D01*
X34275858Y-27746253D01*
X34290000Y-27760395D01*
X34304143Y-27746253D01*
X34483748Y-27925858D01*
G36*
X32639000Y-16764000D02*
X32639286Y-16764000D01*
X32639000Y-16764691D01*
X32639000Y-18033309D01*
X32735673Y-18266698D01*
X32761941Y-18292966D01*
X32676623Y-18419360D01*
X32626560Y-18669000D01*
X32626560Y-19685000D01*
X32673537Y-19927123D01*
X32813327Y-20139927D01*
X32994600Y-20262289D01*
X32994600Y-23622000D01*
X33054537Y-23923325D01*
X33225224Y-24178776D01*
X33733224Y-24686776D01*
X33774267Y-24714200D01*
X32969200Y-24714200D01*
X32531793Y-24801206D01*
X32160977Y-25048977D01*
X30871576Y-26338378D01*
X30845362Y-25814632D01*
X30686397Y-25430857D01*
X30444213Y-25361392D01*
X29643605Y-26162000D01*
X29657748Y-26176143D01*
X29478143Y-26355748D01*
X29464000Y-26341605D01*
X28663392Y-27142213D01*
X28673657Y-27178000D01*
X25467046Y-27178000D01*
X26233623Y-26411423D01*
X26481394Y-26040607D01*
X26498561Y-25954302D01*
X28054856Y-25954302D01*
X28082638Y-26509368D01*
X28241603Y-26893143D01*
X28483787Y-26962608D01*
X29284395Y-26162000D01*
X28483787Y-25361392D01*
X28241603Y-25430857D01*
X28054856Y-25954302D01*
X26498561Y-25954302D01*
X26568400Y-25603200D01*
X26568400Y-25181787D01*
X28663392Y-25181787D01*
X29464000Y-25982395D01*
X30264608Y-25181787D01*
X30195143Y-24939603D01*
X29671698Y-24752856D01*
X29116632Y-24780638D01*
X28732857Y-24939603D01*
X28663392Y-25181787D01*
X26568400Y-25181787D01*
X26568400Y-24434800D01*
X26481394Y-23997393D01*
X26233623Y-23626577D01*
X25862807Y-23378806D01*
X25657682Y-23338004D01*
X25531139Y-23211461D01*
X25226246Y-23007738D01*
X24899440Y-22942732D01*
X24899440Y-22651000D01*
X24852463Y-22408877D01*
X24712673Y-22196073D01*
X24541000Y-22080192D01*
X24541000Y-21975600D01*
X24473329Y-21635394D01*
X24280618Y-21346982D01*
X24142440Y-21208804D01*
X24142440Y-20955000D01*
X24130000Y-20890883D01*
X24130000Y-20600500D01*
X24225250Y-20600500D01*
X24384000Y-20441750D01*
X24384000Y-19567500D01*
X24638000Y-19567500D01*
X24638000Y-20441750D01*
X24796750Y-20600500D01*
X25287309Y-20600500D01*
X25520698Y-20503827D01*
X25699327Y-20325199D01*
X25796000Y-20091810D01*
X25796000Y-19726250D01*
X25637250Y-19567500D01*
X24638000Y-19567500D01*
X24384000Y-19567500D01*
X24384000Y-19567500D01*
X24364000Y-19567500D01*
X24364000Y-19313500D01*
X24384000Y-19313500D01*
X24384000Y-19293500D01*
X24638000Y-19293500D01*
X24638000Y-19313500D01*
X25637250Y-19313500D01*
X25796000Y-19154750D01*
X25796000Y-18789190D01*
X25699327Y-18555801D01*
X25520698Y-18377173D01*
X25292132Y-18282498D01*
X25312736Y-18278500D01*
X25690098Y-18278500D01*
X25828327Y-18488927D01*
X26039360Y-18631377D01*
X26289000Y-18681440D01*
X27813000Y-18681440D01*
X27942528Y-18656309D01*
X28027006Y-19081007D01*
X28274777Y-19451823D01*
X28321000Y-19498046D01*
X28321000Y-19810765D01*
X28247073Y-19859327D01*
X28104623Y-20070360D01*
X28054560Y-20320000D01*
X28054560Y-21844000D01*
X28101537Y-22086123D01*
X28241327Y-22298927D01*
X28452360Y-22441377D01*
X28702000Y-22491440D01*
X30226000Y-22491440D01*
X30468123Y-22444463D01*
X30680927Y-22304673D01*
X30823377Y-22093640D01*
X30873440Y-21844000D01*
X30873440Y-20320000D01*
X30826463Y-20077877D01*
X30686673Y-19865073D01*
X30607000Y-19811293D01*
X30607000Y-19024600D01*
X30519994Y-18587193D01*
X30379453Y-18376859D01*
X30442377Y-18283640D01*
X30450456Y-18243353D01*
X30566206Y-18220329D01*
X30826449Y-18046440D01*
X31242000Y-18046440D01*
X31484123Y-17999463D01*
X31618299Y-17911324D01*
X31644302Y-17937327D01*
X31877691Y-18034000D01*
X32226250Y-18034000D01*
X32385000Y-17875250D01*
X32385000Y-17018000D01*
X32365000Y-17018000D01*
X32365000Y-16764000D01*
X32385000Y-16764000D01*
X32385000Y-16744000D01*
X32639000Y-16744000D01*
X32639000Y-16764000D01*
X32639000Y-16764000D01*
G37*
X32639000Y-16764000D02*
X32639286Y-16764000D01*
X32639000Y-16764691D01*
X32639000Y-18033309D01*
X32735673Y-18266698D01*
X32761941Y-18292966D01*
X32676623Y-18419360D01*
X32626560Y-18669000D01*
X32626560Y-19685000D01*
X32673537Y-19927123D01*
X32813327Y-20139927D01*
X32994600Y-20262289D01*
X32994600Y-23622000D01*
X33054537Y-23923325D01*
X33225224Y-24178776D01*
X33733224Y-24686776D01*
X33774267Y-24714200D01*
X32969200Y-24714200D01*
X32531793Y-24801206D01*
X32160977Y-25048977D01*
X30871576Y-26338378D01*
X30845362Y-25814632D01*
X30686397Y-25430857D01*
X30444213Y-25361392D01*
X29643605Y-26162000D01*
X29657748Y-26176143D01*
X29478143Y-26355748D01*
X29464000Y-26341605D01*
X28663392Y-27142213D01*
X28673657Y-27178000D01*
X25467046Y-27178000D01*
X26233623Y-26411423D01*
X26481394Y-26040607D01*
X26498561Y-25954302D01*
X28054856Y-25954302D01*
X28082638Y-26509368D01*
X28241603Y-26893143D01*
X28483787Y-26962608D01*
X29284395Y-26162000D01*
X28483787Y-25361392D01*
X28241603Y-25430857D01*
X28054856Y-25954302D01*
X26498561Y-25954302D01*
X26568400Y-25603200D01*
X26568400Y-25181787D01*
X28663392Y-25181787D01*
X29464000Y-25982395D01*
X30264608Y-25181787D01*
X30195143Y-24939603D01*
X29671698Y-24752856D01*
X29116632Y-24780638D01*
X28732857Y-24939603D01*
X28663392Y-25181787D01*
X26568400Y-25181787D01*
X26568400Y-24434800D01*
X26481394Y-23997393D01*
X26233623Y-23626577D01*
X25862807Y-23378806D01*
X25657682Y-23338004D01*
X25531139Y-23211461D01*
X25226246Y-23007738D01*
X24899440Y-22942732D01*
X24899440Y-22651000D01*
X24852463Y-22408877D01*
X24712673Y-22196073D01*
X24541000Y-22080192D01*
X24541000Y-21975600D01*
X24473329Y-21635394D01*
X24280618Y-21346982D01*
X24142440Y-21208804D01*
X24142440Y-20955000D01*
X24130000Y-20890883D01*
X24130000Y-20600500D01*
X24225250Y-20600500D01*
X24384000Y-20441750D01*
X24384000Y-19567500D01*
X24638000Y-19567500D01*
X24638000Y-20441750D01*
X24796750Y-20600500D01*
X25287309Y-20600500D01*
X25520698Y-20503827D01*
X25699327Y-20325199D01*
X25796000Y-20091810D01*
X25796000Y-19726250D01*
X25637250Y-19567500D01*
X24638000Y-19567500D01*
X24384000Y-19567500D01*
X24384000Y-19567500D01*
X24364000Y-19567500D01*
X24364000Y-19313500D01*
X24384000Y-19313500D01*
X24384000Y-19293500D01*
X24638000Y-19293500D01*
X24638000Y-19313500D01*
X25637250Y-19313500D01*
X25796000Y-19154750D01*
X25796000Y-18789190D01*
X25699327Y-18555801D01*
X25520698Y-18377173D01*
X25292132Y-18282498D01*
X25312736Y-18278500D01*
X25690098Y-18278500D01*
X25828327Y-18488927D01*
X26039360Y-18631377D01*
X26289000Y-18681440D01*
X27813000Y-18681440D01*
X27942528Y-18656309D01*
X28027006Y-19081007D01*
X28274777Y-19451823D01*
X28321000Y-19498046D01*
X28321000Y-19810765D01*
X28247073Y-19859327D01*
X28104623Y-20070360D01*
X28054560Y-20320000D01*
X28054560Y-21844000D01*
X28101537Y-22086123D01*
X28241327Y-22298927D01*
X28452360Y-22441377D01*
X28702000Y-22491440D01*
X30226000Y-22491440D01*
X30468123Y-22444463D01*
X30680927Y-22304673D01*
X30823377Y-22093640D01*
X30873440Y-21844000D01*
X30873440Y-20320000D01*
X30826463Y-20077877D01*
X30686673Y-19865073D01*
X30607000Y-19811293D01*
X30607000Y-19024600D01*
X30519994Y-18587193D01*
X30379453Y-18376859D01*
X30442377Y-18283640D01*
X30450456Y-18243353D01*
X30566206Y-18220329D01*
X30826449Y-18046440D01*
X31242000Y-18046440D01*
X31484123Y-17999463D01*
X31618299Y-17911324D01*
X31644302Y-17937327D01*
X31877691Y-18034000D01*
X32226250Y-18034000D01*
X32385000Y-17875250D01*
X32385000Y-17018000D01*
X32365000Y-17018000D01*
X32365000Y-16764000D01*
X32385000Y-16764000D01*
X32385000Y-16744000D01*
X32639000Y-16744000D01*
X32639000Y-16764000D01*
G36*
X22413715Y-22605348D02*
X22404560Y-22651000D01*
X22404560Y-23201000D01*
X22444005Y-23404305D01*
X22404560Y-23601000D01*
X22404560Y-24151000D01*
X22444005Y-24354305D01*
X22404560Y-24551000D01*
X22404560Y-25101000D01*
X22410381Y-25131000D01*
X22293424Y-25131000D01*
X22299440Y-25101000D01*
X22299440Y-24551000D01*
X22259309Y-24344161D01*
X22287000Y-24277309D01*
X22287000Y-24161750D01*
X22128250Y-24003000D01*
X21974790Y-24003000D01*
X21901640Y-23953623D01*
X21652000Y-23903560D01*
X20905000Y-23903560D01*
X20905000Y-23848440D01*
X21652000Y-23848440D01*
X21894123Y-23801463D01*
X21973988Y-23749000D01*
X22128250Y-23749000D01*
X22287000Y-23590250D01*
X22287000Y-23474691D01*
X22258400Y-23405645D01*
X22299440Y-23201000D01*
X22299440Y-22651000D01*
X22285598Y-22579655D01*
X22413715Y-22605348D01*
X22413715Y-22605348D01*
G37*
X22413715Y-22605348D02*
X22404560Y-22651000D01*
X22404560Y-23201000D01*
X22444005Y-23404305D01*
X22404560Y-23601000D01*
X22404560Y-24151000D01*
X22444005Y-24354305D01*
X22404560Y-24551000D01*
X22404560Y-25101000D01*
X22410381Y-25131000D01*
X22293424Y-25131000D01*
X22299440Y-25101000D01*
X22299440Y-24551000D01*
X22259309Y-24344161D01*
X22287000Y-24277309D01*
X22287000Y-24161750D01*
X22128250Y-24003000D01*
X21974790Y-24003000D01*
X21901640Y-23953623D01*
X21652000Y-23903560D01*
X20905000Y-23903560D01*
X20905000Y-23848440D01*
X21652000Y-23848440D01*
X21894123Y-23801463D01*
X21973988Y-23749000D01*
X22128250Y-23749000D01*
X22287000Y-23590250D01*
X22287000Y-23474691D01*
X22258400Y-23405645D01*
X22299440Y-23201000D01*
X22299440Y-22651000D01*
X22285598Y-22579655D01*
X22413715Y-22605348D01*
G36*
X35753748Y-19035858D02*
X35739605Y-19050000D01*
X35753748Y-19064143D01*
X35574143Y-19243748D01*
X35560000Y-19229605D01*
X35545858Y-19243748D01*
X35366253Y-19064143D01*
X35380395Y-19050000D01*
X35366253Y-19035858D01*
X35545858Y-18856253D01*
X35560000Y-18870395D01*
X35574143Y-18856253D01*
X35753748Y-19035858D01*
X35753748Y-19035858D01*
G37*
X35753748Y-19035858D02*
X35739605Y-19050000D01*
X35753748Y-19064143D01*
X35574143Y-19243748D01*
X35560000Y-19229605D01*
X35545858Y-19243748D01*
X35366253Y-19064143D01*
X35380395Y-19050000D01*
X35366253Y-19035858D01*
X35545858Y-18856253D01*
X35560000Y-18870395D01*
X35574143Y-18856253D01*
X35753748Y-19035858D01*
G36*
X35603214Y-16899864D02*
X35602788Y-17387995D01*
X35653092Y-17509739D01*
X35190540Y-17529161D01*
X34892757Y-17652507D01*
X34766250Y-17526000D01*
X33909000Y-17526000D01*
X33909000Y-17546000D01*
X33655000Y-17546000D01*
X33655000Y-17526000D01*
X33654714Y-17526000D01*
X33655000Y-17525310D01*
X33655000Y-17252000D01*
X33909000Y-17252000D01*
X33909000Y-17272000D01*
X34766250Y-17272000D01*
X34925000Y-17113250D01*
X34925000Y-16764691D01*
X34872109Y-16637000D01*
X35712365Y-16637000D01*
X35603214Y-16899864D01*
X35603214Y-16899864D01*
G37*
X35603214Y-16899864D02*
X35602788Y-17387995D01*
X35653092Y-17509739D01*
X35190540Y-17529161D01*
X34892757Y-17652507D01*
X34766250Y-17526000D01*
X33909000Y-17526000D01*
X33909000Y-17546000D01*
X33655000Y-17546000D01*
X33655000Y-17526000D01*
X33654714Y-17526000D01*
X33655000Y-17525310D01*
X33655000Y-17252000D01*
X33909000Y-17252000D01*
X33909000Y-17272000D01*
X34766250Y-17272000D01*
X34925000Y-17113250D01*
X34925000Y-16764691D01*
X34872109Y-16637000D01*
X35712365Y-16637000D01*
X35603214Y-16899864D01*
M02*
