G04 #@! TF.FileFunction,Soldermask,Bot*
%FSLAX46Y46*%
G04 Gerber Fmt 4.6, Leading zero omitted, Abs format (unit mm)*
G04 Created by KiCad (PCBNEW no-vcs-found-product) date 20.07.2015 (пн) 10,43,29 EEST*
%MOMM*%
G01*
G04 APERTURE LIST*
%ADD10C,0.100000*%
%ADD11C,0.254000*%
G04 APERTURE END LIST*
D10*
D11*
X38100000Y-15875000D02*
X18415000Y-15875000D01*
X18415000Y-29210000D02*
X18415000Y-15875000D01*
X38100000Y-29210000D02*
X18415000Y-29210000D01*
X38100000Y-15875000D02*
X38100000Y-29210000D01*
D10*
G36*
X30326000Y-21944000D02*
X28602000Y-21944000D01*
X28602000Y-20220000D01*
X30326000Y-20220000D01*
X30326000Y-21944000D01*
X30326000Y-21944000D01*
G37*
G36*
X30326037Y-26077477D02*
X30323341Y-26270560D01*
X30323265Y-26270893D01*
X30323265Y-26270905D01*
X30285891Y-26435406D01*
X30217133Y-26589839D01*
X30119690Y-26727974D01*
X29997266Y-26844556D01*
X29854539Y-26935134D01*
X29696931Y-26996267D01*
X29530454Y-27025620D01*
X29361444Y-27022081D01*
X29196336Y-26985779D01*
X29041431Y-26918103D01*
X28902613Y-26821622D01*
X28785184Y-26700020D01*
X28693612Y-26557928D01*
X28631381Y-26400752D01*
X28600864Y-26234476D01*
X28603225Y-26065447D01*
X28638371Y-25900097D01*
X28704967Y-25744718D01*
X28800473Y-25605235D01*
X28921254Y-25486957D01*
X29062705Y-25394394D01*
X29219444Y-25331067D01*
X29385493Y-25299392D01*
X29554539Y-25300572D01*
X29720136Y-25334564D01*
X29875971Y-25400072D01*
X30016119Y-25494602D01*
X30135237Y-25614555D01*
X30228788Y-25755359D01*
X30293203Y-25911645D01*
X30325971Y-26077133D01*
X30325970Y-26077142D01*
X30326037Y-26077477D01*
X30326037Y-26077477D01*
G37*
G36*
X35240841Y-27846769D02*
X35237867Y-28059743D01*
X35237790Y-28060081D01*
X35237790Y-28060085D01*
X35196558Y-28241575D01*
X35120718Y-28411913D01*
X35013236Y-28564278D01*
X35013234Y-28564279D01*
X34878204Y-28692866D01*
X34878201Y-28692870D01*
X34720770Y-28792778D01*
X34546926Y-28860209D01*
X34363300Y-28892586D01*
X34363297Y-28892585D01*
X34176879Y-28888682D01*
X33994765Y-28848640D01*
X33994761Y-28848640D01*
X33823902Y-28773994D01*
X33823898Y-28773991D01*
X33670782Y-28667573D01*
X33541256Y-28533444D01*
X33440251Y-28376715D01*
X33371609Y-28203347D01*
X33337948Y-28019943D01*
X33340552Y-27833501D01*
X33379318Y-27651117D01*
X33452774Y-27479734D01*
X33505448Y-27402806D01*
X33558120Y-27325880D01*
X33558121Y-27325878D01*
X33558122Y-27325878D01*
X33691343Y-27195417D01*
X33847366Y-27093318D01*
X34020251Y-27023469D01*
X34203406Y-26988530D01*
X34389866Y-26989832D01*
X34572521Y-27027326D01*
X34744411Y-27099581D01*
X34898996Y-27203851D01*
X34898998Y-27203852D01*
X35030385Y-27336159D01*
X35133569Y-27491465D01*
X35133569Y-27491466D01*
X35204625Y-27663857D01*
X35240774Y-27846425D01*
X35240773Y-27846430D01*
X35240841Y-27846769D01*
X35240841Y-27846769D01*
G37*
G36*
X36510800Y-22540800D02*
X34609200Y-22540800D01*
X34609200Y-20639200D01*
X36510800Y-20639200D01*
X36510800Y-22540800D01*
X36510800Y-22540800D01*
G37*
G36*
X36510841Y-18956769D02*
X36507867Y-19169743D01*
X36507790Y-19170081D01*
X36507790Y-19170085D01*
X36466558Y-19351575D01*
X36390718Y-19521913D01*
X36283236Y-19674278D01*
X36283234Y-19674279D01*
X36148204Y-19802866D01*
X36148201Y-19802870D01*
X35990770Y-19902778D01*
X35816926Y-19970209D01*
X35633300Y-20002586D01*
X35633297Y-20002585D01*
X35446879Y-19998682D01*
X35264765Y-19958640D01*
X35264761Y-19958640D01*
X35093902Y-19883994D01*
X35093898Y-19883991D01*
X34940782Y-19777573D01*
X34811256Y-19643444D01*
X34710251Y-19486715D01*
X34641609Y-19313347D01*
X34607948Y-19129943D01*
X34610552Y-18943501D01*
X34649318Y-18761117D01*
X34722774Y-18589734D01*
X34775448Y-18512806D01*
X34828120Y-18435880D01*
X34828121Y-18435878D01*
X34828122Y-18435878D01*
X34961343Y-18305417D01*
X35117366Y-18203318D01*
X35290251Y-18133469D01*
X35473406Y-18098530D01*
X35659866Y-18099832D01*
X35842521Y-18137326D01*
X36014411Y-18209581D01*
X36168996Y-18313851D01*
X36168998Y-18313852D01*
X36300385Y-18446159D01*
X36403569Y-18601465D01*
X36403569Y-18601466D01*
X36474625Y-18773857D01*
X36510774Y-18956425D01*
X36510773Y-18956430D01*
X36510841Y-18956769D01*
X36510841Y-18956769D01*
G37*
G36*
X37780800Y-28890800D02*
X35879200Y-28890800D01*
X35879200Y-26989200D01*
X37780800Y-26989200D01*
X37780800Y-28890800D01*
X37780800Y-28890800D01*
G37*
M02*
