G04 #@! TF.FileFunction,Legend,Bot*
%FSLAX46Y46*%
G04 Gerber Fmt 4.6, Leading zero omitted, Abs format (unit mm)*
G04 Created by KiCad (PCBNEW no-vcs-found-product) date 20.07.2015 (пн) 10,43,29 EEST*
%MOMM*%
G01*
G04 APERTURE LIST*
%ADD10C,0.100000*%
%ADD11C,0.200000*%
%ADD12C,0.150000*%
%ADD13C,0.175000*%
%ADD14C,0.254000*%
%ADD15C,0.009000*%
%ADD16C,0.127000*%
G04 APERTURE END LIST*
D10*
D11*
X32588200Y-23215600D02*
X37769800Y-23215600D01*
X35178743Y-16952143D02*
X35788267Y-17209286D01*
X35178743Y-17466429D01*
X34454934Y-17509286D02*
X34531124Y-17552143D01*
X34683505Y-17552143D01*
X34759696Y-17509286D01*
X34797791Y-17466429D01*
X34835886Y-17380714D01*
X34835886Y-17123571D01*
X34797791Y-17037857D01*
X34759696Y-16995000D01*
X34683505Y-16952143D01*
X34531124Y-16952143D01*
X34454934Y-16995000D01*
X34112077Y-16952143D02*
X33502553Y-17209286D01*
X34112077Y-17466429D01*
X33159696Y-16737857D02*
X33121601Y-16695000D01*
X33045410Y-16652143D01*
X32854934Y-16652143D01*
X32778744Y-16695000D01*
X32740648Y-16737857D01*
X32702553Y-16823571D01*
X32702553Y-16909286D01*
X32740648Y-17037857D01*
X33197791Y-17552143D01*
X32702553Y-17552143D01*
X32207315Y-16652143D02*
X32131124Y-16652143D01*
X32054934Y-16695000D01*
X32016839Y-16737857D01*
X31978743Y-16823571D01*
X31940648Y-16995000D01*
X31940648Y-17209286D01*
X31978743Y-17380714D01*
X32016839Y-17466429D01*
X32054934Y-17509286D01*
X32131124Y-17552143D01*
X32207315Y-17552143D01*
X32283505Y-17509286D01*
X32321601Y-17466429D01*
X32359696Y-17380714D01*
X32397791Y-17209286D01*
X32397791Y-16995000D01*
X32359696Y-16823571D01*
X32321601Y-16737857D01*
X32283505Y-16695000D01*
X32207315Y-16652143D01*
X31178743Y-17552143D02*
X31635886Y-17552143D01*
X31407315Y-17552143D02*
X31407315Y-16652143D01*
X31483505Y-16780714D01*
X31559696Y-16866429D01*
X31635886Y-16909286D01*
X30454933Y-16652143D02*
X30835886Y-16652143D01*
X30873981Y-17080714D01*
X30835886Y-17037857D01*
X30759695Y-16995000D01*
X30569219Y-16995000D01*
X30493029Y-17037857D01*
X30454933Y-17080714D01*
X30416838Y-17166429D01*
X30416838Y-17380714D01*
X30454933Y-17466429D01*
X30493029Y-17509286D01*
X30569219Y-17552143D01*
X30759695Y-17552143D01*
X30835886Y-17509286D01*
X30873981Y-17466429D01*
D12*
X31409899Y-25197543D02*
X31409899Y-24297543D01*
X31131328Y-25197543D02*
X31131328Y-24726114D01*
X31162280Y-24640400D01*
X31224185Y-24597543D01*
X31317042Y-24597543D01*
X31378947Y-24640400D01*
X31409899Y-24683257D01*
X30914661Y-24597543D02*
X30667042Y-24597543D01*
X30821804Y-24297543D02*
X30821804Y-25068971D01*
X30790852Y-25154686D01*
X30728947Y-25197543D01*
X30667042Y-25197543D01*
X30543232Y-24597543D02*
X30295613Y-24597543D01*
X30450375Y-24297543D02*
X30450375Y-25068971D01*
X30419423Y-25154686D01*
X30357518Y-25197543D01*
X30295613Y-25197543D01*
X30078946Y-24597543D02*
X30078946Y-25497543D01*
X30078946Y-24640400D02*
X30017041Y-24597543D01*
X29893232Y-24597543D01*
X29831327Y-24640400D01*
X29800375Y-24683257D01*
X29769422Y-24768971D01*
X29769422Y-25026114D01*
X29800375Y-25111829D01*
X29831327Y-25154686D01*
X29893232Y-25197543D01*
X30017041Y-25197543D01*
X30078946Y-25154686D01*
X29521803Y-25154686D02*
X29459899Y-25197543D01*
X29336089Y-25197543D01*
X29274184Y-25154686D01*
X29243232Y-25068971D01*
X29243232Y-25026114D01*
X29274184Y-24940400D01*
X29336089Y-24897543D01*
X29428946Y-24897543D01*
X29490851Y-24854686D01*
X29521803Y-24768971D01*
X29521803Y-24726114D01*
X29490851Y-24640400D01*
X29428946Y-24597543D01*
X29336089Y-24597543D01*
X29274184Y-24640400D01*
X28964661Y-25111829D02*
X28933709Y-25154686D01*
X28964661Y-25197543D01*
X28995613Y-25154686D01*
X28964661Y-25111829D01*
X28964661Y-25197543D01*
X28964661Y-24640400D02*
X28933709Y-24683257D01*
X28964661Y-24726114D01*
X28995613Y-24683257D01*
X28964661Y-24640400D01*
X28964661Y-24726114D01*
X28190851Y-24254686D02*
X28747994Y-25411829D01*
X27509899Y-24254686D02*
X28067042Y-25411829D01*
X27355138Y-24597543D02*
X27231328Y-25197543D01*
X27107519Y-24768971D01*
X26983709Y-25197543D01*
X26859900Y-24597543D01*
X26674186Y-24597543D02*
X26550376Y-25197543D01*
X26426567Y-24768971D01*
X26302757Y-25197543D01*
X26178948Y-24597543D01*
X25993234Y-24597543D02*
X25869424Y-25197543D01*
X25745615Y-24768971D01*
X25621805Y-25197543D01*
X25497996Y-24597543D01*
X25250377Y-25111829D02*
X25219425Y-25154686D01*
X25250377Y-25197543D01*
X25281329Y-25154686D01*
X25250377Y-25111829D01*
X25250377Y-25197543D01*
X24847996Y-25197543D02*
X24909901Y-25154686D01*
X24940853Y-25111829D01*
X24971805Y-25026114D01*
X24971805Y-24768971D01*
X24940853Y-24683257D01*
X24909901Y-24640400D01*
X24847996Y-24597543D01*
X24755139Y-24597543D01*
X24693234Y-24640400D01*
X24662282Y-24683257D01*
X24631329Y-24768971D01*
X24631329Y-25026114D01*
X24662282Y-25111829D01*
X24693234Y-25154686D01*
X24755139Y-25197543D01*
X24847996Y-25197543D01*
X24259901Y-25197543D02*
X24321806Y-25154686D01*
X24352758Y-25068971D01*
X24352758Y-24297543D01*
X24012282Y-25197543D02*
X24012282Y-24597543D01*
X24012282Y-24297543D02*
X24043234Y-24340400D01*
X24012282Y-24383257D01*
X23981330Y-24340400D01*
X24012282Y-24297543D01*
X24012282Y-24383257D01*
X23702758Y-25197543D02*
X23702758Y-24597543D01*
X23702758Y-24683257D02*
X23671806Y-24640400D01*
X23609901Y-24597543D01*
X23517044Y-24597543D01*
X23455139Y-24640400D01*
X23424187Y-24726114D01*
X23424187Y-25197543D01*
X23424187Y-24726114D02*
X23393234Y-24640400D01*
X23331330Y-24597543D01*
X23238472Y-24597543D01*
X23176568Y-24640400D01*
X23145615Y-24726114D01*
X23145615Y-25197543D01*
X22588472Y-25154686D02*
X22650377Y-25197543D01*
X22774186Y-25197543D01*
X22836091Y-25154686D01*
X22867043Y-25068971D01*
X22867043Y-24726114D01*
X22836091Y-24640400D01*
X22774186Y-24597543D01*
X22650377Y-24597543D01*
X22588472Y-24640400D01*
X22557520Y-24726114D01*
X22557520Y-24811829D01*
X22867043Y-24897543D01*
X22340853Y-25197543D02*
X22000377Y-24597543D01*
X22340853Y-24597543D02*
X22000377Y-25197543D01*
X21752758Y-25111829D02*
X21721806Y-25154686D01*
X21752758Y-25197543D01*
X21783710Y-25154686D01*
X21752758Y-25111829D01*
X21752758Y-25197543D01*
X21164663Y-25154686D02*
X21226567Y-25197543D01*
X21350377Y-25197543D01*
X21412282Y-25154686D01*
X21443234Y-25111829D01*
X21474186Y-25026114D01*
X21474186Y-24768971D01*
X21443234Y-24683257D01*
X21412282Y-24640400D01*
X21350377Y-24597543D01*
X21226567Y-24597543D01*
X21164663Y-24640400D01*
X20793234Y-25197543D02*
X20855139Y-25154686D01*
X20886091Y-25111829D01*
X20917043Y-25026114D01*
X20917043Y-24768971D01*
X20886091Y-24683257D01*
X20855139Y-24640400D01*
X20793234Y-24597543D01*
X20700377Y-24597543D01*
X20638472Y-24640400D01*
X20607520Y-24683257D01*
X20576567Y-24768971D01*
X20576567Y-25026114D01*
X20607520Y-25111829D01*
X20638472Y-25154686D01*
X20700377Y-25197543D01*
X20793234Y-25197543D01*
X20297996Y-25197543D02*
X20297996Y-24597543D01*
X20297996Y-24683257D02*
X20267044Y-24640400D01*
X20205139Y-24597543D01*
X20112282Y-24597543D01*
X20050377Y-24640400D01*
X20019425Y-24726114D01*
X20019425Y-25197543D01*
X20019425Y-24726114D02*
X19988472Y-24640400D01*
X19926568Y-24597543D01*
X19833710Y-24597543D01*
X19771806Y-24640400D01*
X19740853Y-24726114D01*
X19740853Y-25197543D01*
X18967043Y-24254686D02*
X19524186Y-25411829D01*
D13*
X20966799Y-23756881D02*
X21200133Y-23280690D01*
X21366799Y-23756881D02*
X21366799Y-22756881D01*
X21100133Y-22756881D01*
X21033466Y-22804500D01*
X21000133Y-22852119D01*
X20966799Y-22947357D01*
X20966799Y-23090214D01*
X21000133Y-23185452D01*
X21033466Y-23233071D01*
X21100133Y-23280690D01*
X21366799Y-23280690D01*
X20533466Y-22756881D02*
X20400133Y-22756881D01*
X20333466Y-22804500D01*
X20266799Y-22899738D01*
X20233466Y-23090214D01*
X20233466Y-23423548D01*
X20266799Y-23614024D01*
X20333466Y-23709262D01*
X20400133Y-23756881D01*
X20533466Y-23756881D01*
X20600133Y-23709262D01*
X20666799Y-23614024D01*
X20700133Y-23423548D01*
X20700133Y-23090214D01*
X20666799Y-22899738D01*
X20600133Y-22804500D01*
X20533466Y-22756881D01*
X19933466Y-23756881D02*
X19933466Y-22756881D01*
X19933466Y-23233071D02*
X19533466Y-23233071D01*
X19533466Y-23756881D02*
X19533466Y-22756881D01*
X19233467Y-23709262D02*
X19133467Y-23756881D01*
X18966800Y-23756881D01*
X18900133Y-23709262D01*
X18866800Y-23661643D01*
X18833467Y-23566405D01*
X18833467Y-23471167D01*
X18866800Y-23375929D01*
X18900133Y-23328310D01*
X18966800Y-23280690D01*
X19100133Y-23233071D01*
X19166800Y-23185452D01*
X19200133Y-23137833D01*
X19233467Y-23042595D01*
X19233467Y-22947357D01*
X19200133Y-22852119D01*
X19166800Y-22804500D01*
X19100133Y-22756881D01*
X18933467Y-22756881D01*
X18833467Y-22804500D01*
D11*
X23821057Y-28594005D02*
X23821057Y-28060671D01*
X23821057Y-28213052D02*
X23778200Y-28136862D01*
X23735343Y-28098767D01*
X23649629Y-28060671D01*
X23563914Y-28060671D01*
X22921057Y-28555910D02*
X23006771Y-28594005D01*
X23178200Y-28594005D01*
X23263914Y-28555910D01*
X23306771Y-28479719D01*
X23306771Y-28174957D01*
X23263914Y-28098767D01*
X23178200Y-28060671D01*
X23006771Y-28060671D01*
X22921057Y-28098767D01*
X22878200Y-28174957D01*
X22878200Y-28251148D01*
X23306771Y-28327338D01*
X22578200Y-28060671D02*
X22363914Y-28594005D01*
X22149628Y-28060671D01*
X21806771Y-28517814D02*
X21763914Y-28555910D01*
X21806771Y-28594005D01*
X21849628Y-28555910D01*
X21806771Y-28517814D01*
X21806771Y-28594005D01*
X21421057Y-28365433D02*
X20992486Y-28365433D01*
X21506772Y-28594005D02*
X21206772Y-27794005D01*
X20906772Y-28594005D01*
D13*
X32543301Y-28129714D02*
X32443301Y-28172571D01*
X32409968Y-28215429D01*
X32376634Y-28301143D01*
X32376634Y-28429714D01*
X32409968Y-28515429D01*
X32443301Y-28558286D01*
X32509968Y-28601143D01*
X32776634Y-28601143D01*
X32776634Y-27701143D01*
X32543301Y-27701143D01*
X32476634Y-27744000D01*
X32443301Y-27786857D01*
X32409968Y-27872571D01*
X32409968Y-27958286D01*
X32443301Y-28044000D01*
X32476634Y-28086857D01*
X32543301Y-28129714D01*
X32776634Y-28129714D01*
X31843301Y-28129714D02*
X31743301Y-28172571D01*
X31709968Y-28215429D01*
X31676634Y-28301143D01*
X31676634Y-28429714D01*
X31709968Y-28515429D01*
X31743301Y-28558286D01*
X31809968Y-28601143D01*
X32076634Y-28601143D01*
X32076634Y-27701143D01*
X31843301Y-27701143D01*
X31776634Y-27744000D01*
X31743301Y-27786857D01*
X31709968Y-27872571D01*
X31709968Y-27958286D01*
X31743301Y-28044000D01*
X31776634Y-28086857D01*
X31843301Y-28129714D01*
X32076634Y-28129714D01*
X31376634Y-28258286D02*
X30843301Y-28258286D01*
X30509967Y-28601143D02*
X30509967Y-27701143D01*
X30243301Y-27701143D01*
X30176634Y-27744000D01*
X30143301Y-27786857D01*
X30109967Y-27872571D01*
X30109967Y-28001143D01*
X30143301Y-28086857D01*
X30176634Y-28129714D01*
X30243301Y-28172571D01*
X30509967Y-28172571D01*
X29876634Y-27701143D02*
X29709967Y-28601143D01*
X29576634Y-27958286D01*
X29443301Y-28601143D01*
X29276634Y-27701143D01*
X28609967Y-28601143D02*
X28843301Y-28172571D01*
X29009967Y-28601143D02*
X29009967Y-27701143D01*
X28743301Y-27701143D01*
X28676634Y-27744000D01*
X28643301Y-27786857D01*
X28609967Y-27872571D01*
X28609967Y-28001143D01*
X28643301Y-28086857D01*
X28676634Y-28129714D01*
X28743301Y-28172571D01*
X29009967Y-28172571D01*
X28309967Y-28258286D02*
X27776634Y-28258286D01*
X27343300Y-28086857D02*
X27409967Y-28044000D01*
X27443300Y-28001143D01*
X27476634Y-27915429D01*
X27476634Y-27872571D01*
X27443300Y-27786857D01*
X27409967Y-27744000D01*
X27343300Y-27701143D01*
X27209967Y-27701143D01*
X27143300Y-27744000D01*
X27109967Y-27786857D01*
X27076634Y-27872571D01*
X27076634Y-27915429D01*
X27109967Y-28001143D01*
X27143300Y-28044000D01*
X27209967Y-28086857D01*
X27343300Y-28086857D01*
X27409967Y-28129714D01*
X27443300Y-28172571D01*
X27476634Y-28258286D01*
X27476634Y-28429714D01*
X27443300Y-28515429D01*
X27409967Y-28558286D01*
X27343300Y-28601143D01*
X27209967Y-28601143D01*
X27143300Y-28558286D01*
X27109967Y-28515429D01*
X27076634Y-28429714D01*
X27076634Y-28258286D01*
X27109967Y-28172571D01*
X27143300Y-28129714D01*
X27209967Y-28086857D01*
X26409967Y-28601143D02*
X26809967Y-28601143D01*
X26609967Y-28601143D02*
X26609967Y-27701143D01*
X26676633Y-27829714D01*
X26743300Y-27915429D01*
X26809967Y-27958286D01*
X25743300Y-28601143D02*
X26143300Y-28601143D01*
X25943300Y-28601143D02*
X25943300Y-27701143D01*
X26009966Y-27829714D01*
X26076633Y-27915429D01*
X26143300Y-27958286D01*
X25509966Y-27701143D02*
X25076633Y-27701143D01*
X25309966Y-28044000D01*
X25209966Y-28044000D01*
X25143299Y-28086857D01*
X25109966Y-28129714D01*
X25076633Y-28215429D01*
X25076633Y-28429714D01*
X25109966Y-28515429D01*
X25143299Y-28558286D01*
X25209966Y-28601143D01*
X25409966Y-28601143D01*
X25476633Y-28558286D01*
X25509966Y-28515429D01*
D12*
X36304414Y-24605567D02*
X36304414Y-24138900D01*
X36304414Y-23905567D02*
X36332985Y-23938900D01*
X36304414Y-23972233D01*
X36275842Y-23938900D01*
X36304414Y-23905567D01*
X36304414Y-23972233D01*
X36018700Y-24138900D02*
X36018700Y-24605567D01*
X36018700Y-24205567D02*
X35990128Y-24172233D01*
X35932986Y-24138900D01*
X35847271Y-24138900D01*
X35790128Y-24172233D01*
X35761557Y-24238900D01*
X35761557Y-24605567D01*
X35475843Y-24138900D02*
X35475843Y-24838900D01*
X35475843Y-24172233D02*
X35418700Y-24138900D01*
X35304414Y-24138900D01*
X35247271Y-24172233D01*
X35218700Y-24205567D01*
X35190129Y-24272233D01*
X35190129Y-24472233D01*
X35218700Y-24538900D01*
X35247271Y-24572233D01*
X35304414Y-24605567D01*
X35418700Y-24605567D01*
X35475843Y-24572233D01*
X34675843Y-24138900D02*
X34675843Y-24605567D01*
X34932986Y-24138900D02*
X34932986Y-24505567D01*
X34904414Y-24572233D01*
X34847272Y-24605567D01*
X34761557Y-24605567D01*
X34704414Y-24572233D01*
X34675843Y-24538900D01*
X34475843Y-24138900D02*
X34247272Y-24138900D01*
X34390129Y-23905567D02*
X34390129Y-24505567D01*
X34361557Y-24572233D01*
X34304415Y-24605567D01*
X34247272Y-24605567D01*
X36461557Y-25268900D02*
X36461557Y-25735567D01*
X36604414Y-25002233D02*
X36747271Y-25502233D01*
X36375843Y-25502233D01*
X36147271Y-25668900D02*
X36118699Y-25702233D01*
X36147271Y-25735567D01*
X36175842Y-25702233D01*
X36147271Y-25668900D01*
X36147271Y-25735567D01*
X35861557Y-25668900D02*
X35832985Y-25702233D01*
X35861557Y-25735567D01*
X35890128Y-25702233D01*
X35861557Y-25668900D01*
X35861557Y-25735567D01*
X35575843Y-25668900D02*
X35547271Y-25702233D01*
X35575843Y-25735567D01*
X35604414Y-25702233D01*
X35575843Y-25668900D01*
X35575843Y-25735567D01*
X34975843Y-25735567D02*
X35318700Y-25735567D01*
X35147272Y-25735567D02*
X35147272Y-25035567D01*
X35204415Y-25135567D01*
X35261557Y-25202233D01*
X35318700Y-25235567D01*
X34432986Y-25035567D02*
X34718700Y-25035567D01*
X34747271Y-25368900D01*
X34718700Y-25335567D01*
X34661557Y-25302233D01*
X34518700Y-25302233D01*
X34461557Y-25335567D01*
X34432986Y-25368900D01*
X34404414Y-25435567D01*
X34404414Y-25602233D01*
X34432986Y-25668900D01*
X34461557Y-25702233D01*
X34518700Y-25735567D01*
X34661557Y-25735567D01*
X34718700Y-25702233D01*
X34747271Y-25668900D01*
X34232985Y-25035567D02*
X34032985Y-25735567D01*
X33832985Y-25035567D01*
D11*
X34582062Y-26251686D02*
X33972538Y-26251686D01*
X37083962Y-26289786D02*
X36474438Y-26289786D01*
X36779200Y-26632643D02*
X36779200Y-25946929D01*
X37618143Y-18707299D02*
X37575286Y-18631108D01*
X37532429Y-18593013D01*
X37446714Y-18554918D01*
X37189571Y-18554918D01*
X37103857Y-18593013D01*
X37061000Y-18631108D01*
X37018143Y-18707299D01*
X37018143Y-18821585D01*
X37061000Y-18897775D01*
X37103857Y-18935870D01*
X37189571Y-18973966D01*
X37446714Y-18973966D01*
X37532429Y-18935870D01*
X37575286Y-18897775D01*
X37618143Y-18821585D01*
X37618143Y-18707299D01*
X37018143Y-19659680D02*
X37618143Y-19659680D01*
X37018143Y-19316823D02*
X37489571Y-19316823D01*
X37575286Y-19354918D01*
X37618143Y-19431109D01*
X37618143Y-19545395D01*
X37575286Y-19621585D01*
X37532429Y-19659680D01*
X37018143Y-19926347D02*
X37018143Y-20231109D01*
X36718143Y-20040633D02*
X37489571Y-20040633D01*
X37575286Y-20078728D01*
X37618143Y-20154919D01*
X37618143Y-20231109D01*
X37018143Y-20497776D02*
X37918143Y-20497776D01*
X37061000Y-20497776D02*
X37018143Y-20573967D01*
X37018143Y-20726348D01*
X37061000Y-20802538D01*
X37103857Y-20840633D01*
X37189571Y-20878729D01*
X37446714Y-20878729D01*
X37532429Y-20840633D01*
X37575286Y-20802538D01*
X37618143Y-20726348D01*
X37618143Y-20573967D01*
X37575286Y-20497776D01*
X37018143Y-21564443D02*
X37618143Y-21564443D01*
X37018143Y-21221586D02*
X37489571Y-21221586D01*
X37575286Y-21259681D01*
X37618143Y-21335872D01*
X37618143Y-21450158D01*
X37575286Y-21526348D01*
X37532429Y-21564443D01*
X37018143Y-21831110D02*
X37018143Y-22135872D01*
X36718143Y-21945396D02*
X37489571Y-21945396D01*
X37575286Y-21983491D01*
X37618143Y-22059682D01*
X37618143Y-22135872D01*
X33858123Y-18549200D02*
X33934314Y-18506343D01*
X34048599Y-18506343D01*
X34162885Y-18549200D01*
X34239076Y-18634914D01*
X34277171Y-18720629D01*
X34315266Y-18892057D01*
X34315266Y-19020629D01*
X34277171Y-19192057D01*
X34239076Y-19277771D01*
X34162885Y-19363486D01*
X34048599Y-19406343D01*
X33972409Y-19406343D01*
X33858123Y-19363486D01*
X33820028Y-19320629D01*
X33820028Y-19020629D01*
X33972409Y-19020629D01*
X33477171Y-19406343D02*
X33477171Y-18506343D01*
X33020028Y-19406343D01*
X33020028Y-18506343D01*
X32639076Y-19406343D02*
X32639076Y-18506343D01*
X32448600Y-18506343D01*
X32334314Y-18549200D01*
X32258123Y-18634914D01*
X32220028Y-18720629D01*
X32181933Y-18892057D01*
X32181933Y-19020629D01*
X32220028Y-19192057D01*
X32258123Y-19277771D01*
X32334314Y-19363486D01*
X32448600Y-19406343D01*
X32639076Y-19406343D01*
X34391400Y-21628886D02*
X33781876Y-21628886D01*
X34086638Y-21971743D02*
X34086638Y-21286029D01*
X33477114Y-21071743D02*
X32981876Y-21071743D01*
X33248543Y-21414600D01*
X33134257Y-21414600D01*
X33058067Y-21457457D01*
X33019971Y-21500314D01*
X32981876Y-21586029D01*
X32981876Y-21800314D01*
X33019971Y-21886029D01*
X33058067Y-21928886D01*
X33134257Y-21971743D01*
X33362829Y-21971743D01*
X33439019Y-21928886D01*
X33477114Y-21886029D01*
X32639019Y-21886029D02*
X32600924Y-21928886D01*
X32639019Y-21971743D01*
X32677114Y-21928886D01*
X32639019Y-21886029D01*
X32639019Y-21971743D01*
X32334257Y-21071743D02*
X31839019Y-21071743D01*
X32105686Y-21414600D01*
X31991400Y-21414600D01*
X31915210Y-21457457D01*
X31877114Y-21500314D01*
X31839019Y-21586029D01*
X31839019Y-21800314D01*
X31877114Y-21886029D01*
X31915210Y-21928886D01*
X31991400Y-21971743D01*
X32219972Y-21971743D01*
X32296162Y-21928886D01*
X32334257Y-21886029D01*
X31610448Y-21071743D02*
X31343781Y-21971743D01*
X31077114Y-21071743D01*
D12*
X28292764Y-27093829D02*
X28359431Y-27065257D01*
X28392764Y-27036686D01*
X28426098Y-26979543D01*
X28426098Y-26808114D01*
X28392764Y-26750971D01*
X28359431Y-26722400D01*
X28292764Y-26693829D01*
X28192764Y-26693829D01*
X28126098Y-26722400D01*
X28092764Y-26750971D01*
X28059431Y-26808114D01*
X28059431Y-26979543D01*
X28092764Y-27036686D01*
X28126098Y-27065257D01*
X28192764Y-27093829D01*
X28292764Y-27093829D01*
X27759431Y-26693829D02*
X27759431Y-27293829D01*
X27759431Y-26722400D02*
X27692765Y-26693829D01*
X27559431Y-26693829D01*
X27492765Y-26722400D01*
X27459431Y-26750971D01*
X27426098Y-26808114D01*
X27426098Y-26979543D01*
X27459431Y-27036686D01*
X27492765Y-27065257D01*
X27559431Y-27093829D01*
X27692765Y-27093829D01*
X27759431Y-27065257D01*
X26859432Y-27065257D02*
X26926098Y-27093829D01*
X27059432Y-27093829D01*
X27126098Y-27065257D01*
X27159432Y-27008114D01*
X27159432Y-26779543D01*
X27126098Y-26722400D01*
X27059432Y-26693829D01*
X26926098Y-26693829D01*
X26859432Y-26722400D01*
X26826098Y-26779543D01*
X26826098Y-26836686D01*
X27159432Y-26893829D01*
X26526098Y-26693829D02*
X26526098Y-27093829D01*
X26526098Y-26750971D02*
X26492765Y-26722400D01*
X26426098Y-26693829D01*
X26326098Y-26693829D01*
X26259432Y-26722400D01*
X26226098Y-26779543D01*
X26226098Y-27093829D01*
X25359432Y-27093829D02*
X25359432Y-26493829D01*
X25059432Y-27093829D02*
X25059432Y-26779543D01*
X25092766Y-26722400D01*
X25159432Y-26693829D01*
X25259432Y-26693829D01*
X25326099Y-26722400D01*
X25359432Y-26750971D01*
X24426099Y-27093829D02*
X24426099Y-26779543D01*
X24459433Y-26722400D01*
X24526099Y-26693829D01*
X24659433Y-26693829D01*
X24726099Y-26722400D01*
X24426099Y-27065257D02*
X24492766Y-27093829D01*
X24659433Y-27093829D01*
X24726099Y-27065257D01*
X24759433Y-27008114D01*
X24759433Y-26950971D01*
X24726099Y-26893829D01*
X24659433Y-26865257D01*
X24492766Y-26865257D01*
X24426099Y-26836686D01*
X24092766Y-27093829D02*
X24092766Y-26693829D01*
X24092766Y-26808114D02*
X24059433Y-26750971D01*
X24026100Y-26722400D01*
X23959433Y-26693829D01*
X23892766Y-26693829D01*
X23359433Y-27093829D02*
X23359433Y-26493829D01*
X23359433Y-27065257D02*
X23426100Y-27093829D01*
X23559433Y-27093829D01*
X23626100Y-27065257D01*
X23659433Y-27036686D01*
X23692767Y-26979543D01*
X23692767Y-26808114D01*
X23659433Y-26750971D01*
X23626100Y-26722400D01*
X23559433Y-26693829D01*
X23426100Y-26693829D01*
X23359433Y-26722400D01*
X23092767Y-26693829D02*
X22959434Y-27093829D01*
X22826100Y-26808114D01*
X22692767Y-27093829D01*
X22559434Y-26693829D01*
X21992767Y-27093829D02*
X21992767Y-26779543D01*
X22026101Y-26722400D01*
X22092767Y-26693829D01*
X22226101Y-26693829D01*
X22292767Y-26722400D01*
X21992767Y-27065257D02*
X22059434Y-27093829D01*
X22226101Y-27093829D01*
X22292767Y-27065257D01*
X22326101Y-27008114D01*
X22326101Y-26950971D01*
X22292767Y-26893829D01*
X22226101Y-26865257D01*
X22059434Y-26865257D01*
X21992767Y-26836686D01*
X21659434Y-27093829D02*
X21659434Y-26693829D01*
X21659434Y-26808114D02*
X21626101Y-26750971D01*
X21592768Y-26722400D01*
X21526101Y-26693829D01*
X21459434Y-26693829D01*
X20959435Y-27065257D02*
X21026101Y-27093829D01*
X21159435Y-27093829D01*
X21226101Y-27065257D01*
X21259435Y-27008114D01*
X21259435Y-26779543D01*
X21226101Y-26722400D01*
X21159435Y-26693829D01*
X21026101Y-26693829D01*
X20959435Y-26722400D01*
X20926101Y-26779543D01*
X20926101Y-26836686D01*
X21259435Y-26893829D01*
D14*
X38100000Y-15875000D02*
X18415000Y-15875000D01*
X18415000Y-29210000D02*
X18415000Y-15875000D01*
X38100000Y-29210000D02*
X18415000Y-29210000D01*
X38100000Y-15875000D02*
X38100000Y-29210000D01*
D15*
G36*
X28539758Y-23709894D02*
X28541946Y-23758073D01*
X28551906Y-23801358D01*
X28557855Y-23815542D01*
X28581393Y-23852181D01*
X28614139Y-23888732D01*
X28651040Y-23920150D01*
X28681178Y-23938700D01*
X28704540Y-23946540D01*
X28704540Y-23719790D01*
X28707607Y-23685595D01*
X28718175Y-23663538D01*
X28738298Y-23651523D01*
X28770029Y-23647455D01*
X28775474Y-23647400D01*
X28801129Y-23649175D01*
X28821958Y-23653708D01*
X28829232Y-23657129D01*
X28842453Y-23675125D01*
X28849433Y-23701671D01*
X28850163Y-23731447D01*
X28844632Y-23759130D01*
X28832832Y-23779397D01*
X28829462Y-23782283D01*
X28809357Y-23790066D01*
X28781851Y-23792616D01*
X28753080Y-23790229D01*
X28729180Y-23783206D01*
X28719780Y-23776940D01*
X28709925Y-23762256D01*
X28705325Y-23740799D01*
X28704540Y-23719790D01*
X28704540Y-23946540D01*
X28717154Y-23950773D01*
X28760249Y-23957159D01*
X28804167Y-23957500D01*
X28842610Y-23951437D01*
X28851870Y-23948417D01*
X28883368Y-23932813D01*
X28916497Y-23910625D01*
X28946040Y-23885787D01*
X28966783Y-23862232D01*
X28967430Y-23861259D01*
X28982670Y-23837944D01*
X29144840Y-23837922D01*
X29204108Y-23837644D01*
X29250014Y-23836756D01*
X29284424Y-23835149D01*
X29309209Y-23832714D01*
X29326237Y-23829344D01*
X29333155Y-23826976D01*
X29348484Y-23817340D01*
X29371738Y-23798771D01*
X29400651Y-23773470D01*
X29432957Y-23743640D01*
X29466392Y-23711486D01*
X29498690Y-23679209D01*
X29527585Y-23649013D01*
X29550812Y-23623100D01*
X29566105Y-23603674D01*
X29570464Y-23596210D01*
X29572327Y-23589464D01*
X29573963Y-23577995D01*
X29575387Y-23560917D01*
X29576612Y-23537343D01*
X29577649Y-23506386D01*
X29578514Y-23467158D01*
X29579219Y-23418774D01*
X29579778Y-23360346D01*
X29580203Y-23290986D01*
X29580509Y-23209809D01*
X29580708Y-23115928D01*
X29580813Y-23008454D01*
X29580840Y-22904695D01*
X29580840Y-22237700D01*
X29462730Y-22237700D01*
X29344620Y-22237700D01*
X29344620Y-22868459D01*
X29344620Y-23499219D01*
X29292994Y-23550449D01*
X29241368Y-23601680D01*
X29112019Y-23601658D01*
X28982670Y-23601636D01*
X28967430Y-23578321D01*
X28948034Y-23555818D01*
X28919643Y-23531325D01*
X28887319Y-23508742D01*
X28856123Y-23491966D01*
X28854197Y-23491145D01*
X28815347Y-23481290D01*
X28769929Y-23479531D01*
X28724093Y-23485566D01*
X28683989Y-23499092D01*
X28683017Y-23499571D01*
X28638589Y-23528117D01*
X28598099Y-23565943D01*
X28566354Y-23608304D01*
X28558608Y-23622483D01*
X28545320Y-23662728D01*
X28539758Y-23709894D01*
X28539758Y-23709894D01*
X28539758Y-23709894D01*
G37*
X28539758Y-23709894D02*
X28541946Y-23758073D01*
X28551906Y-23801358D01*
X28557855Y-23815542D01*
X28581393Y-23852181D01*
X28614139Y-23888732D01*
X28651040Y-23920150D01*
X28681178Y-23938700D01*
X28704540Y-23946540D01*
X28704540Y-23719790D01*
X28707607Y-23685595D01*
X28718175Y-23663538D01*
X28738298Y-23651523D01*
X28770029Y-23647455D01*
X28775474Y-23647400D01*
X28801129Y-23649175D01*
X28821958Y-23653708D01*
X28829232Y-23657129D01*
X28842453Y-23675125D01*
X28849433Y-23701671D01*
X28850163Y-23731447D01*
X28844632Y-23759130D01*
X28832832Y-23779397D01*
X28829462Y-23782283D01*
X28809357Y-23790066D01*
X28781851Y-23792616D01*
X28753080Y-23790229D01*
X28729180Y-23783206D01*
X28719780Y-23776940D01*
X28709925Y-23762256D01*
X28705325Y-23740799D01*
X28704540Y-23719790D01*
X28704540Y-23946540D01*
X28717154Y-23950773D01*
X28760249Y-23957159D01*
X28804167Y-23957500D01*
X28842610Y-23951437D01*
X28851870Y-23948417D01*
X28883368Y-23932813D01*
X28916497Y-23910625D01*
X28946040Y-23885787D01*
X28966783Y-23862232D01*
X28967430Y-23861259D01*
X28982670Y-23837944D01*
X29144840Y-23837922D01*
X29204108Y-23837644D01*
X29250014Y-23836756D01*
X29284424Y-23835149D01*
X29309209Y-23832714D01*
X29326237Y-23829344D01*
X29333155Y-23826976D01*
X29348484Y-23817340D01*
X29371738Y-23798771D01*
X29400651Y-23773470D01*
X29432957Y-23743640D01*
X29466392Y-23711486D01*
X29498690Y-23679209D01*
X29527585Y-23649013D01*
X29550812Y-23623100D01*
X29566105Y-23603674D01*
X29570464Y-23596210D01*
X29572327Y-23589464D01*
X29573963Y-23577995D01*
X29575387Y-23560917D01*
X29576612Y-23537343D01*
X29577649Y-23506386D01*
X29578514Y-23467158D01*
X29579219Y-23418774D01*
X29579778Y-23360346D01*
X29580203Y-23290986D01*
X29580509Y-23209809D01*
X29580708Y-23115928D01*
X29580813Y-23008454D01*
X29580840Y-22904695D01*
X29580840Y-22237700D01*
X29462730Y-22237700D01*
X29344620Y-22237700D01*
X29344620Y-22868459D01*
X29344620Y-23499219D01*
X29292994Y-23550449D01*
X29241368Y-23601680D01*
X29112019Y-23601658D01*
X28982670Y-23601636D01*
X28967430Y-23578321D01*
X28948034Y-23555818D01*
X28919643Y-23531325D01*
X28887319Y-23508742D01*
X28856123Y-23491966D01*
X28854197Y-23491145D01*
X28815347Y-23481290D01*
X28769929Y-23479531D01*
X28724093Y-23485566D01*
X28683989Y-23499092D01*
X28683017Y-23499571D01*
X28638589Y-23528117D01*
X28598099Y-23565943D01*
X28566354Y-23608304D01*
X28558608Y-23622483D01*
X28545320Y-23662728D01*
X28539758Y-23709894D01*
X28539758Y-23709894D01*
G36*
X26595543Y-23694821D02*
X26596146Y-23743596D01*
X26605430Y-23790746D01*
X26615024Y-23815542D01*
X26638185Y-23851927D01*
X26670688Y-23888394D01*
X26707516Y-23919912D01*
X26738078Y-23938865D01*
X26761440Y-23946481D01*
X26761440Y-23719790D01*
X26764507Y-23685595D01*
X26775075Y-23663538D01*
X26795198Y-23651523D01*
X26826929Y-23647455D01*
X26832374Y-23647400D01*
X26858029Y-23649175D01*
X26878858Y-23653708D01*
X26886132Y-23657129D01*
X26899353Y-23675125D01*
X26906333Y-23701671D01*
X26907063Y-23731447D01*
X26901532Y-23759130D01*
X26889732Y-23779397D01*
X26886362Y-23782283D01*
X26866257Y-23790066D01*
X26838751Y-23792616D01*
X26809980Y-23790229D01*
X26786080Y-23783206D01*
X26776680Y-23776940D01*
X26766825Y-23762256D01*
X26762225Y-23740799D01*
X26761440Y-23719790D01*
X26761440Y-23946481D01*
X26777881Y-23951841D01*
X26824865Y-23957035D01*
X26873125Y-23954472D01*
X26916750Y-23944173D01*
X26931137Y-23938112D01*
X26974299Y-23910047D01*
X27014296Y-23871553D01*
X27046481Y-23827370D01*
X27054765Y-23812004D01*
X27069312Y-23769165D01*
X27075126Y-23721559D01*
X27071917Y-23675172D01*
X27062951Y-23643662D01*
X27046380Y-23611963D01*
X27023831Y-23579085D01*
X26999156Y-23550053D01*
X26976204Y-23529892D01*
X26975299Y-23529290D01*
X26951984Y-23514050D01*
X26951962Y-22993985D01*
X26951940Y-22473920D01*
X26984381Y-22473920D01*
X26993114Y-22474127D01*
X27001314Y-22475444D01*
X27010198Y-22478912D01*
X27020982Y-22485575D01*
X27034886Y-22496473D01*
X27053124Y-22512650D01*
X27076917Y-22535147D01*
X27107479Y-22565008D01*
X27146029Y-22603273D01*
X27193784Y-22650986D01*
X27209171Y-22666380D01*
X27401520Y-22858840D01*
X27401498Y-22931175D01*
X27401333Y-22964799D01*
X27400246Y-22986642D01*
X27397317Y-23000161D01*
X27391623Y-23008815D01*
X27382244Y-23016063D01*
X27378161Y-23018750D01*
X27352738Y-23040862D01*
X27326902Y-23072397D01*
X27304438Y-23108131D01*
X27289868Y-23140620D01*
X27281343Y-23184281D01*
X27281946Y-23233056D01*
X27291230Y-23280206D01*
X27300824Y-23305002D01*
X27323985Y-23341387D01*
X27356488Y-23377853D01*
X27393316Y-23409372D01*
X27423878Y-23428324D01*
X27447240Y-23435941D01*
X27447240Y-23209250D01*
X27450307Y-23175055D01*
X27460875Y-23152998D01*
X27480998Y-23140983D01*
X27512729Y-23136915D01*
X27518174Y-23136860D01*
X27543829Y-23138635D01*
X27564658Y-23143168D01*
X27571932Y-23146589D01*
X27585153Y-23164585D01*
X27592133Y-23191131D01*
X27592863Y-23220907D01*
X27587332Y-23248590D01*
X27575532Y-23268857D01*
X27572162Y-23271743D01*
X27552057Y-23279526D01*
X27524551Y-23282076D01*
X27495780Y-23279689D01*
X27471880Y-23272666D01*
X27462480Y-23266400D01*
X27452625Y-23251716D01*
X27448025Y-23230259D01*
X27447240Y-23209250D01*
X27447240Y-23435941D01*
X27463681Y-23441301D01*
X27510665Y-23446495D01*
X27558925Y-23443932D01*
X27602550Y-23433633D01*
X27616936Y-23427572D01*
X27660099Y-23399507D01*
X27700096Y-23361013D01*
X27732281Y-23316830D01*
X27740565Y-23301464D01*
X27755112Y-23258625D01*
X27760926Y-23211019D01*
X27757717Y-23164632D01*
X27748751Y-23133122D01*
X27732180Y-23101423D01*
X27709631Y-23068545D01*
X27684956Y-23039513D01*
X27662004Y-23019352D01*
X27661099Y-23018750D01*
X27650294Y-23011205D01*
X27643480Y-23003400D01*
X27639736Y-22991878D01*
X27638140Y-22973179D01*
X27637772Y-22943846D01*
X27637762Y-22931175D01*
X27637740Y-22858840D01*
X27830089Y-22666380D01*
X27880676Y-22615799D01*
X27921713Y-22574960D01*
X27954417Y-22542822D01*
X27980006Y-22518343D01*
X27999696Y-22500479D01*
X28014705Y-22488190D01*
X28026250Y-22480432D01*
X28035549Y-22476164D01*
X28043819Y-22474343D01*
X28052277Y-22473927D01*
X28054879Y-22473920D01*
X28087320Y-22473920D01*
X28087298Y-22993985D01*
X28087276Y-23514050D01*
X28063961Y-23529290D01*
X28038538Y-23551402D01*
X28012702Y-23582937D01*
X27990238Y-23618671D01*
X27975668Y-23651160D01*
X27967143Y-23694821D01*
X27967746Y-23743596D01*
X27977030Y-23790746D01*
X27986624Y-23815542D01*
X28009844Y-23852013D01*
X28042395Y-23888494D01*
X28079233Y-23919936D01*
X28109678Y-23938700D01*
X28133040Y-23946551D01*
X28133040Y-23719790D01*
X28136107Y-23685595D01*
X28146675Y-23663538D01*
X28166798Y-23651523D01*
X28198529Y-23647455D01*
X28203974Y-23647400D01*
X28229629Y-23649175D01*
X28250458Y-23653708D01*
X28257732Y-23657129D01*
X28270953Y-23675125D01*
X28277933Y-23701671D01*
X28278663Y-23731447D01*
X28273132Y-23759130D01*
X28261332Y-23779397D01*
X28257962Y-23782283D01*
X28237857Y-23790066D01*
X28210351Y-23792616D01*
X28181580Y-23790229D01*
X28157680Y-23783206D01*
X28148280Y-23776940D01*
X28138425Y-23762256D01*
X28133825Y-23740799D01*
X28133040Y-23719790D01*
X28133040Y-23946551D01*
X28145308Y-23950674D01*
X28188064Y-23957090D01*
X28231683Y-23957584D01*
X28269903Y-23951793D01*
X28279926Y-23948570D01*
X28329793Y-23922126D01*
X28375151Y-23883844D01*
X28412600Y-23837088D01*
X28434777Y-23795377D01*
X28442869Y-23763938D01*
X28445952Y-23724849D01*
X28444036Y-23684851D01*
X28437132Y-23650685D01*
X28434551Y-23643662D01*
X28417980Y-23611963D01*
X28395431Y-23579085D01*
X28370756Y-23550053D01*
X28347804Y-23529892D01*
X28346899Y-23529290D01*
X28323584Y-23514050D01*
X28323562Y-22875875D01*
X28323540Y-22237700D01*
X28141156Y-22237700D01*
X28082349Y-22238040D01*
X28030950Y-22239014D01*
X27988802Y-22240548D01*
X27957745Y-22242571D01*
X27939621Y-22245011D01*
X27937321Y-22245680D01*
X27927127Y-22252777D01*
X27907582Y-22269454D01*
X27880039Y-22294443D01*
X27845852Y-22326474D01*
X27806376Y-22364281D01*
X27762963Y-22406595D01*
X27717696Y-22451421D01*
X27519521Y-22649183D01*
X27325265Y-22454104D01*
X27279662Y-22408687D01*
X27236503Y-22366425D01*
X27197178Y-22328623D01*
X27163077Y-22296591D01*
X27135591Y-22271635D01*
X27116109Y-22255064D01*
X27106490Y-22248363D01*
X27094328Y-22244740D01*
X27075470Y-22241972D01*
X27048207Y-22239972D01*
X27010832Y-22238652D01*
X26961639Y-22237923D01*
X26898921Y-22237700D01*
X26898845Y-22237700D01*
X26715720Y-22237700D01*
X26715698Y-22875875D01*
X26715676Y-23514050D01*
X26692361Y-23529290D01*
X26666938Y-23551402D01*
X26641102Y-23582937D01*
X26618638Y-23618671D01*
X26604068Y-23651160D01*
X26595543Y-23694821D01*
X26595543Y-23694821D01*
X26595543Y-23694821D01*
G37*
X26595543Y-23694821D02*
X26596146Y-23743596D01*
X26605430Y-23790746D01*
X26615024Y-23815542D01*
X26638185Y-23851927D01*
X26670688Y-23888394D01*
X26707516Y-23919912D01*
X26738078Y-23938865D01*
X26761440Y-23946481D01*
X26761440Y-23719790D01*
X26764507Y-23685595D01*
X26775075Y-23663538D01*
X26795198Y-23651523D01*
X26826929Y-23647455D01*
X26832374Y-23647400D01*
X26858029Y-23649175D01*
X26878858Y-23653708D01*
X26886132Y-23657129D01*
X26899353Y-23675125D01*
X26906333Y-23701671D01*
X26907063Y-23731447D01*
X26901532Y-23759130D01*
X26889732Y-23779397D01*
X26886362Y-23782283D01*
X26866257Y-23790066D01*
X26838751Y-23792616D01*
X26809980Y-23790229D01*
X26786080Y-23783206D01*
X26776680Y-23776940D01*
X26766825Y-23762256D01*
X26762225Y-23740799D01*
X26761440Y-23719790D01*
X26761440Y-23946481D01*
X26777881Y-23951841D01*
X26824865Y-23957035D01*
X26873125Y-23954472D01*
X26916750Y-23944173D01*
X26931137Y-23938112D01*
X26974299Y-23910047D01*
X27014296Y-23871553D01*
X27046481Y-23827370D01*
X27054765Y-23812004D01*
X27069312Y-23769165D01*
X27075126Y-23721559D01*
X27071917Y-23675172D01*
X27062951Y-23643662D01*
X27046380Y-23611963D01*
X27023831Y-23579085D01*
X26999156Y-23550053D01*
X26976204Y-23529892D01*
X26975299Y-23529290D01*
X26951984Y-23514050D01*
X26951962Y-22993985D01*
X26951940Y-22473920D01*
X26984381Y-22473920D01*
X26993114Y-22474127D01*
X27001314Y-22475444D01*
X27010198Y-22478912D01*
X27020982Y-22485575D01*
X27034886Y-22496473D01*
X27053124Y-22512650D01*
X27076917Y-22535147D01*
X27107479Y-22565008D01*
X27146029Y-22603273D01*
X27193784Y-22650986D01*
X27209171Y-22666380D01*
X27401520Y-22858840D01*
X27401498Y-22931175D01*
X27401333Y-22964799D01*
X27400246Y-22986642D01*
X27397317Y-23000161D01*
X27391623Y-23008815D01*
X27382244Y-23016063D01*
X27378161Y-23018750D01*
X27352738Y-23040862D01*
X27326902Y-23072397D01*
X27304438Y-23108131D01*
X27289868Y-23140620D01*
X27281343Y-23184281D01*
X27281946Y-23233056D01*
X27291230Y-23280206D01*
X27300824Y-23305002D01*
X27323985Y-23341387D01*
X27356488Y-23377853D01*
X27393316Y-23409372D01*
X27423878Y-23428324D01*
X27447240Y-23435941D01*
X27447240Y-23209250D01*
X27450307Y-23175055D01*
X27460875Y-23152998D01*
X27480998Y-23140983D01*
X27512729Y-23136915D01*
X27518174Y-23136860D01*
X27543829Y-23138635D01*
X27564658Y-23143168D01*
X27571932Y-23146589D01*
X27585153Y-23164585D01*
X27592133Y-23191131D01*
X27592863Y-23220907D01*
X27587332Y-23248590D01*
X27575532Y-23268857D01*
X27572162Y-23271743D01*
X27552057Y-23279526D01*
X27524551Y-23282076D01*
X27495780Y-23279689D01*
X27471880Y-23272666D01*
X27462480Y-23266400D01*
X27452625Y-23251716D01*
X27448025Y-23230259D01*
X27447240Y-23209250D01*
X27447240Y-23435941D01*
X27463681Y-23441301D01*
X27510665Y-23446495D01*
X27558925Y-23443932D01*
X27602550Y-23433633D01*
X27616936Y-23427572D01*
X27660099Y-23399507D01*
X27700096Y-23361013D01*
X27732281Y-23316830D01*
X27740565Y-23301464D01*
X27755112Y-23258625D01*
X27760926Y-23211019D01*
X27757717Y-23164632D01*
X27748751Y-23133122D01*
X27732180Y-23101423D01*
X27709631Y-23068545D01*
X27684956Y-23039513D01*
X27662004Y-23019352D01*
X27661099Y-23018750D01*
X27650294Y-23011205D01*
X27643480Y-23003400D01*
X27639736Y-22991878D01*
X27638140Y-22973179D01*
X27637772Y-22943846D01*
X27637762Y-22931175D01*
X27637740Y-22858840D01*
X27830089Y-22666380D01*
X27880676Y-22615799D01*
X27921713Y-22574960D01*
X27954417Y-22542822D01*
X27980006Y-22518343D01*
X27999696Y-22500479D01*
X28014705Y-22488190D01*
X28026250Y-22480432D01*
X28035549Y-22476164D01*
X28043819Y-22474343D01*
X28052277Y-22473927D01*
X28054879Y-22473920D01*
X28087320Y-22473920D01*
X28087298Y-22993985D01*
X28087276Y-23514050D01*
X28063961Y-23529290D01*
X28038538Y-23551402D01*
X28012702Y-23582937D01*
X27990238Y-23618671D01*
X27975668Y-23651160D01*
X27967143Y-23694821D01*
X27967746Y-23743596D01*
X27977030Y-23790746D01*
X27986624Y-23815542D01*
X28009844Y-23852013D01*
X28042395Y-23888494D01*
X28079233Y-23919936D01*
X28109678Y-23938700D01*
X28133040Y-23946551D01*
X28133040Y-23719790D01*
X28136107Y-23685595D01*
X28146675Y-23663538D01*
X28166798Y-23651523D01*
X28198529Y-23647455D01*
X28203974Y-23647400D01*
X28229629Y-23649175D01*
X28250458Y-23653708D01*
X28257732Y-23657129D01*
X28270953Y-23675125D01*
X28277933Y-23701671D01*
X28278663Y-23731447D01*
X28273132Y-23759130D01*
X28261332Y-23779397D01*
X28257962Y-23782283D01*
X28237857Y-23790066D01*
X28210351Y-23792616D01*
X28181580Y-23790229D01*
X28157680Y-23783206D01*
X28148280Y-23776940D01*
X28138425Y-23762256D01*
X28133825Y-23740799D01*
X28133040Y-23719790D01*
X28133040Y-23946551D01*
X28145308Y-23950674D01*
X28188064Y-23957090D01*
X28231683Y-23957584D01*
X28269903Y-23951793D01*
X28279926Y-23948570D01*
X28329793Y-23922126D01*
X28375151Y-23883844D01*
X28412600Y-23837088D01*
X28434777Y-23795377D01*
X28442869Y-23763938D01*
X28445952Y-23724849D01*
X28444036Y-23684851D01*
X28437132Y-23650685D01*
X28434551Y-23643662D01*
X28417980Y-23611963D01*
X28395431Y-23579085D01*
X28370756Y-23550053D01*
X28347804Y-23529892D01*
X28346899Y-23529290D01*
X28323584Y-23514050D01*
X28323562Y-22875875D01*
X28323540Y-22237700D01*
X28141156Y-22237700D01*
X28082349Y-22238040D01*
X28030950Y-22239014D01*
X27988802Y-22240548D01*
X27957745Y-22242571D01*
X27939621Y-22245011D01*
X27937321Y-22245680D01*
X27927127Y-22252777D01*
X27907582Y-22269454D01*
X27880039Y-22294443D01*
X27845852Y-22326474D01*
X27806376Y-22364281D01*
X27762963Y-22406595D01*
X27717696Y-22451421D01*
X27519521Y-22649183D01*
X27325265Y-22454104D01*
X27279662Y-22408687D01*
X27236503Y-22366425D01*
X27197178Y-22328623D01*
X27163077Y-22296591D01*
X27135591Y-22271635D01*
X27116109Y-22255064D01*
X27106490Y-22248363D01*
X27094328Y-22244740D01*
X27075470Y-22241972D01*
X27048207Y-22239972D01*
X27010832Y-22238652D01*
X26961639Y-22237923D01*
X26898921Y-22237700D01*
X26898845Y-22237700D01*
X26715720Y-22237700D01*
X26715698Y-22875875D01*
X26715676Y-23514050D01*
X26692361Y-23529290D01*
X26666938Y-23551402D01*
X26641102Y-23582937D01*
X26618638Y-23618671D01*
X26604068Y-23651160D01*
X26595543Y-23694821D01*
X26595543Y-23694821D01*
G36*
X24478298Y-23709894D02*
X24480486Y-23758073D01*
X24490446Y-23801358D01*
X24496395Y-23815542D01*
X24519933Y-23852181D01*
X24552679Y-23888732D01*
X24589580Y-23920150D01*
X24619718Y-23938700D01*
X24643080Y-23946551D01*
X24643080Y-23719790D01*
X24646146Y-23685595D01*
X24656715Y-23663538D01*
X24676838Y-23651523D01*
X24708569Y-23647455D01*
X24714014Y-23647400D01*
X24739669Y-23649175D01*
X24760498Y-23653708D01*
X24767772Y-23657129D01*
X24780993Y-23675125D01*
X24787973Y-23701671D01*
X24788703Y-23731447D01*
X24783172Y-23759130D01*
X24771372Y-23779397D01*
X24768003Y-23782283D01*
X24747897Y-23790066D01*
X24720391Y-23792616D01*
X24691620Y-23790229D01*
X24667720Y-23783206D01*
X24658320Y-23776940D01*
X24648465Y-23762256D01*
X24643865Y-23740799D01*
X24643080Y-23719790D01*
X24643080Y-23946551D01*
X24655348Y-23950674D01*
X24698104Y-23957090D01*
X24741723Y-23957584D01*
X24779943Y-23951793D01*
X24789966Y-23948570D01*
X24839833Y-23922126D01*
X24885191Y-23883844D01*
X24922640Y-23837088D01*
X24944817Y-23795377D01*
X24952986Y-23763603D01*
X24956011Y-23724214D01*
X24953915Y-23683931D01*
X24946721Y-23649475D01*
X24944286Y-23642933D01*
X24932120Y-23613815D01*
X25044680Y-23501067D01*
X25157239Y-23388320D01*
X25199289Y-23388320D01*
X25241339Y-23388320D01*
X25485135Y-23632923D01*
X25536163Y-23683819D01*
X25584637Y-23731588D01*
X25629352Y-23775087D01*
X25669104Y-23813169D01*
X25702689Y-23844688D01*
X25728904Y-23868501D01*
X25746543Y-23883460D01*
X25753450Y-23888193D01*
X25769183Y-23891608D01*
X25797678Y-23894428D01*
X25836466Y-23896654D01*
X25883082Y-23898284D01*
X25935057Y-23899316D01*
X25989925Y-23899748D01*
X26045219Y-23899580D01*
X26098471Y-23898809D01*
X26147214Y-23897435D01*
X26188982Y-23895455D01*
X26221306Y-23892869D01*
X26241720Y-23889674D01*
X26245430Y-23888484D01*
X26260051Y-23878868D01*
X26282445Y-23859997D01*
X26310408Y-23834136D01*
X26341738Y-23803549D01*
X26374232Y-23770503D01*
X26405686Y-23737262D01*
X26433898Y-23706093D01*
X26456665Y-23679261D01*
X26471783Y-23659031D01*
X26476196Y-23651175D01*
X26478481Y-23638053D01*
X26480530Y-23611192D01*
X26482343Y-23572092D01*
X26483919Y-23522253D01*
X26485258Y-23463174D01*
X26486361Y-23396356D01*
X26487227Y-23323297D01*
X26487856Y-23245498D01*
X26488249Y-23164458D01*
X26488406Y-23081677D01*
X26488325Y-22998654D01*
X26488009Y-22916889D01*
X26487455Y-22837882D01*
X26486665Y-22763133D01*
X26485639Y-22694140D01*
X26484376Y-22632404D01*
X26482876Y-22579425D01*
X26481140Y-22536701D01*
X26479167Y-22505733D01*
X26476958Y-22488021D01*
X26476196Y-22485385D01*
X26466560Y-22470056D01*
X26447991Y-22446802D01*
X26422690Y-22417889D01*
X26392861Y-22385583D01*
X26360706Y-22352148D01*
X26328429Y-22319850D01*
X26298233Y-22290955D01*
X26272320Y-22267728D01*
X26252894Y-22252435D01*
X26245430Y-22248076D01*
X26229499Y-22244681D01*
X26200843Y-22241893D01*
X26161926Y-22239713D01*
X26115218Y-22238139D01*
X26063185Y-22237169D01*
X26008293Y-22236801D01*
X25953011Y-22237035D01*
X25899806Y-22237868D01*
X25851144Y-22239300D01*
X25809493Y-22241329D01*
X25777319Y-22243953D01*
X25757091Y-22247172D01*
X25753450Y-22248367D01*
X25743086Y-22255879D01*
X25723238Y-22273109D01*
X25695110Y-22298912D01*
X25659905Y-22332143D01*
X25618828Y-22371655D01*
X25573083Y-22416304D01*
X25523873Y-22464944D01*
X25485135Y-22503637D01*
X25241339Y-22748240D01*
X25199289Y-22748240D01*
X25157239Y-22748240D01*
X25044680Y-22635492D01*
X24932120Y-22522745D01*
X24944286Y-22493627D01*
X24955023Y-22451461D01*
X24956222Y-22403610D01*
X24948160Y-22356044D01*
X24936405Y-22324556D01*
X24905521Y-22276420D01*
X24864073Y-22233467D01*
X24816699Y-22200369D01*
X24809383Y-22196551D01*
X24759863Y-22179902D01*
X24706387Y-22175756D01*
X24653713Y-22184115D01*
X24621557Y-22196551D01*
X24577129Y-22225097D01*
X24536639Y-22262923D01*
X24504894Y-22305284D01*
X24497148Y-22319463D01*
X24487102Y-22343726D01*
X24481548Y-22369059D01*
X24479399Y-22401359D01*
X24479250Y-22416770D01*
X24482734Y-22466751D01*
X24494517Y-22508244D01*
X24516594Y-22545989D01*
X24549234Y-22583006D01*
X24596496Y-22621613D01*
X24643080Y-22643834D01*
X24643080Y-22416770D01*
X24646146Y-22382575D01*
X24656715Y-22360518D01*
X24676838Y-22348503D01*
X24708569Y-22344435D01*
X24714014Y-22344380D01*
X24739669Y-22346155D01*
X24760498Y-22350688D01*
X24767772Y-22354109D01*
X24780993Y-22372105D01*
X24787973Y-22398651D01*
X24788703Y-22428427D01*
X24783172Y-22456110D01*
X24771372Y-22476377D01*
X24768003Y-22479263D01*
X24747897Y-22487046D01*
X24720391Y-22489596D01*
X24691620Y-22487209D01*
X24667720Y-22480186D01*
X24658320Y-22473920D01*
X24648465Y-22459236D01*
X24643865Y-22437779D01*
X24643080Y-22416770D01*
X24643080Y-22643834D01*
X24646792Y-22645605D01*
X24696006Y-22655146D01*
X24738330Y-22658309D01*
X24894540Y-22813400D01*
X24935521Y-22853636D01*
X24973983Y-22890549D01*
X25008344Y-22922685D01*
X25037022Y-22948593D01*
X25058437Y-22966823D01*
X25071006Y-22975921D01*
X25072201Y-22976475D01*
X25091238Y-22980370D01*
X25121468Y-22982997D01*
X25159175Y-22984394D01*
X25200643Y-22984601D01*
X25242155Y-22983655D01*
X25279996Y-22981595D01*
X25310450Y-22978459D01*
X25329800Y-22974287D01*
X25331030Y-22973793D01*
X25341394Y-22966281D01*
X25361242Y-22949051D01*
X25389370Y-22923248D01*
X25424575Y-22890017D01*
X25465652Y-22850505D01*
X25511397Y-22805856D01*
X25560607Y-22757216D01*
X25599345Y-22718523D01*
X25843141Y-22473920D01*
X25995790Y-22473920D01*
X26148439Y-22473920D01*
X26199669Y-22525546D01*
X26250900Y-22577172D01*
X26250900Y-22750336D01*
X26250900Y-22923500D01*
X26100405Y-22923478D01*
X25949910Y-22923456D01*
X25934670Y-22900141D01*
X25915274Y-22877637D01*
X25886883Y-22853145D01*
X25854559Y-22830562D01*
X25823363Y-22813786D01*
X25821437Y-22812965D01*
X25782587Y-22803110D01*
X25737169Y-22801351D01*
X25691333Y-22807386D01*
X25651229Y-22820912D01*
X25650257Y-22821391D01*
X25605829Y-22849937D01*
X25565339Y-22887763D01*
X25533594Y-22930124D01*
X25525848Y-22944303D01*
X25512560Y-22984548D01*
X25506998Y-23031714D01*
X25509186Y-23079893D01*
X25519146Y-23123178D01*
X25525095Y-23137362D01*
X25548589Y-23173949D01*
X25581245Y-23210419D01*
X25618039Y-23241754D01*
X25648418Y-23260416D01*
X25671780Y-23268198D01*
X25671780Y-23041610D01*
X25674846Y-23007415D01*
X25685415Y-22985358D01*
X25705538Y-22973343D01*
X25737269Y-22969275D01*
X25742714Y-22969220D01*
X25768369Y-22970995D01*
X25789198Y-22975528D01*
X25796472Y-22978949D01*
X25809693Y-22996945D01*
X25816673Y-23023491D01*
X25817403Y-23053267D01*
X25811872Y-23080950D01*
X25800072Y-23101217D01*
X25796703Y-23104103D01*
X25776597Y-23111886D01*
X25749091Y-23114436D01*
X25720320Y-23112049D01*
X25696420Y-23105026D01*
X25687020Y-23098760D01*
X25677165Y-23084076D01*
X25672565Y-23062619D01*
X25671780Y-23041610D01*
X25671780Y-23268198D01*
X25691337Y-23274712D01*
X25739940Y-23280598D01*
X25787489Y-23277626D01*
X25812800Y-23271372D01*
X25847740Y-23255462D01*
X25883354Y-23232649D01*
X25914415Y-23206721D01*
X25934670Y-23183079D01*
X25949910Y-23159764D01*
X26100405Y-23159742D01*
X26250900Y-23159720D01*
X26250900Y-23359949D01*
X26250900Y-23560179D01*
X26199274Y-23611409D01*
X26147648Y-23662640D01*
X25995394Y-23662640D01*
X25843141Y-23662640D01*
X25599345Y-23418037D01*
X25548317Y-23367141D01*
X25499843Y-23319372D01*
X25455128Y-23275873D01*
X25415376Y-23237791D01*
X25381791Y-23206271D01*
X25355576Y-23182459D01*
X25337937Y-23167500D01*
X25331030Y-23162767D01*
X25311223Y-23157876D01*
X25280046Y-23154387D01*
X25241304Y-23152300D01*
X25198805Y-23151615D01*
X25156352Y-23152332D01*
X25117751Y-23154452D01*
X25086809Y-23157974D01*
X25067650Y-23162757D01*
X25055980Y-23170843D01*
X25035308Y-23188336D01*
X25007263Y-23213726D01*
X24973477Y-23245501D01*
X24935579Y-23282152D01*
X24895202Y-23322168D01*
X24890801Y-23326587D01*
X24738473Y-23479760D01*
X24699893Y-23479760D01*
X24655546Y-23486729D01*
X24610230Y-23506160D01*
X24567086Y-23535842D01*
X24529258Y-23573563D01*
X24499887Y-23617109D01*
X24497148Y-23622483D01*
X24483860Y-23662728D01*
X24478298Y-23709894D01*
X24478298Y-23709894D01*
X24478298Y-23709894D01*
G37*
X24478298Y-23709894D02*
X24480486Y-23758073D01*
X24490446Y-23801358D01*
X24496395Y-23815542D01*
X24519933Y-23852181D01*
X24552679Y-23888732D01*
X24589580Y-23920150D01*
X24619718Y-23938700D01*
X24643080Y-23946551D01*
X24643080Y-23719790D01*
X24646146Y-23685595D01*
X24656715Y-23663538D01*
X24676838Y-23651523D01*
X24708569Y-23647455D01*
X24714014Y-23647400D01*
X24739669Y-23649175D01*
X24760498Y-23653708D01*
X24767772Y-23657129D01*
X24780993Y-23675125D01*
X24787973Y-23701671D01*
X24788703Y-23731447D01*
X24783172Y-23759130D01*
X24771372Y-23779397D01*
X24768003Y-23782283D01*
X24747897Y-23790066D01*
X24720391Y-23792616D01*
X24691620Y-23790229D01*
X24667720Y-23783206D01*
X24658320Y-23776940D01*
X24648465Y-23762256D01*
X24643865Y-23740799D01*
X24643080Y-23719790D01*
X24643080Y-23946551D01*
X24655348Y-23950674D01*
X24698104Y-23957090D01*
X24741723Y-23957584D01*
X24779943Y-23951793D01*
X24789966Y-23948570D01*
X24839833Y-23922126D01*
X24885191Y-23883844D01*
X24922640Y-23837088D01*
X24944817Y-23795377D01*
X24952986Y-23763603D01*
X24956011Y-23724214D01*
X24953915Y-23683931D01*
X24946721Y-23649475D01*
X24944286Y-23642933D01*
X24932120Y-23613815D01*
X25044680Y-23501067D01*
X25157239Y-23388320D01*
X25199289Y-23388320D01*
X25241339Y-23388320D01*
X25485135Y-23632923D01*
X25536163Y-23683819D01*
X25584637Y-23731588D01*
X25629352Y-23775087D01*
X25669104Y-23813169D01*
X25702689Y-23844688D01*
X25728904Y-23868501D01*
X25746543Y-23883460D01*
X25753450Y-23888193D01*
X25769183Y-23891608D01*
X25797678Y-23894428D01*
X25836466Y-23896654D01*
X25883082Y-23898284D01*
X25935057Y-23899316D01*
X25989925Y-23899748D01*
X26045219Y-23899580D01*
X26098471Y-23898809D01*
X26147214Y-23897435D01*
X26188982Y-23895455D01*
X26221306Y-23892869D01*
X26241720Y-23889674D01*
X26245430Y-23888484D01*
X26260051Y-23878868D01*
X26282445Y-23859997D01*
X26310408Y-23834136D01*
X26341738Y-23803549D01*
X26374232Y-23770503D01*
X26405686Y-23737262D01*
X26433898Y-23706093D01*
X26456665Y-23679261D01*
X26471783Y-23659031D01*
X26476196Y-23651175D01*
X26478481Y-23638053D01*
X26480530Y-23611192D01*
X26482343Y-23572092D01*
X26483919Y-23522253D01*
X26485258Y-23463174D01*
X26486361Y-23396356D01*
X26487227Y-23323297D01*
X26487856Y-23245498D01*
X26488249Y-23164458D01*
X26488406Y-23081677D01*
X26488325Y-22998654D01*
X26488009Y-22916889D01*
X26487455Y-22837882D01*
X26486665Y-22763133D01*
X26485639Y-22694140D01*
X26484376Y-22632404D01*
X26482876Y-22579425D01*
X26481140Y-22536701D01*
X26479167Y-22505733D01*
X26476958Y-22488021D01*
X26476196Y-22485385D01*
X26466560Y-22470056D01*
X26447991Y-22446802D01*
X26422690Y-22417889D01*
X26392861Y-22385583D01*
X26360706Y-22352148D01*
X26328429Y-22319850D01*
X26298233Y-22290955D01*
X26272320Y-22267728D01*
X26252894Y-22252435D01*
X26245430Y-22248076D01*
X26229499Y-22244681D01*
X26200843Y-22241893D01*
X26161926Y-22239713D01*
X26115218Y-22238139D01*
X26063185Y-22237169D01*
X26008293Y-22236801D01*
X25953011Y-22237035D01*
X25899806Y-22237868D01*
X25851144Y-22239300D01*
X25809493Y-22241329D01*
X25777319Y-22243953D01*
X25757091Y-22247172D01*
X25753450Y-22248367D01*
X25743086Y-22255879D01*
X25723238Y-22273109D01*
X25695110Y-22298912D01*
X25659905Y-22332143D01*
X25618828Y-22371655D01*
X25573083Y-22416304D01*
X25523873Y-22464944D01*
X25485135Y-22503637D01*
X25241339Y-22748240D01*
X25199289Y-22748240D01*
X25157239Y-22748240D01*
X25044680Y-22635492D01*
X24932120Y-22522745D01*
X24944286Y-22493627D01*
X24955023Y-22451461D01*
X24956222Y-22403610D01*
X24948160Y-22356044D01*
X24936405Y-22324556D01*
X24905521Y-22276420D01*
X24864073Y-22233467D01*
X24816699Y-22200369D01*
X24809383Y-22196551D01*
X24759863Y-22179902D01*
X24706387Y-22175756D01*
X24653713Y-22184115D01*
X24621557Y-22196551D01*
X24577129Y-22225097D01*
X24536639Y-22262923D01*
X24504894Y-22305284D01*
X24497148Y-22319463D01*
X24487102Y-22343726D01*
X24481548Y-22369059D01*
X24479399Y-22401359D01*
X24479250Y-22416770D01*
X24482734Y-22466751D01*
X24494517Y-22508244D01*
X24516594Y-22545989D01*
X24549234Y-22583006D01*
X24596496Y-22621613D01*
X24643080Y-22643834D01*
X24643080Y-22416770D01*
X24646146Y-22382575D01*
X24656715Y-22360518D01*
X24676838Y-22348503D01*
X24708569Y-22344435D01*
X24714014Y-22344380D01*
X24739669Y-22346155D01*
X24760498Y-22350688D01*
X24767772Y-22354109D01*
X24780993Y-22372105D01*
X24787973Y-22398651D01*
X24788703Y-22428427D01*
X24783172Y-22456110D01*
X24771372Y-22476377D01*
X24768003Y-22479263D01*
X24747897Y-22487046D01*
X24720391Y-22489596D01*
X24691620Y-22487209D01*
X24667720Y-22480186D01*
X24658320Y-22473920D01*
X24648465Y-22459236D01*
X24643865Y-22437779D01*
X24643080Y-22416770D01*
X24643080Y-22643834D01*
X24646792Y-22645605D01*
X24696006Y-22655146D01*
X24738330Y-22658309D01*
X24894540Y-22813400D01*
X24935521Y-22853636D01*
X24973983Y-22890549D01*
X25008344Y-22922685D01*
X25037022Y-22948593D01*
X25058437Y-22966823D01*
X25071006Y-22975921D01*
X25072201Y-22976475D01*
X25091238Y-22980370D01*
X25121468Y-22982997D01*
X25159175Y-22984394D01*
X25200643Y-22984601D01*
X25242155Y-22983655D01*
X25279996Y-22981595D01*
X25310450Y-22978459D01*
X25329800Y-22974287D01*
X25331030Y-22973793D01*
X25341394Y-22966281D01*
X25361242Y-22949051D01*
X25389370Y-22923248D01*
X25424575Y-22890017D01*
X25465652Y-22850505D01*
X25511397Y-22805856D01*
X25560607Y-22757216D01*
X25599345Y-22718523D01*
X25843141Y-22473920D01*
X25995790Y-22473920D01*
X26148439Y-22473920D01*
X26199669Y-22525546D01*
X26250900Y-22577172D01*
X26250900Y-22750336D01*
X26250900Y-22923500D01*
X26100405Y-22923478D01*
X25949910Y-22923456D01*
X25934670Y-22900141D01*
X25915274Y-22877637D01*
X25886883Y-22853145D01*
X25854559Y-22830562D01*
X25823363Y-22813786D01*
X25821437Y-22812965D01*
X25782587Y-22803110D01*
X25737169Y-22801351D01*
X25691333Y-22807386D01*
X25651229Y-22820912D01*
X25650257Y-22821391D01*
X25605829Y-22849937D01*
X25565339Y-22887763D01*
X25533594Y-22930124D01*
X25525848Y-22944303D01*
X25512560Y-22984548D01*
X25506998Y-23031714D01*
X25509186Y-23079893D01*
X25519146Y-23123178D01*
X25525095Y-23137362D01*
X25548589Y-23173949D01*
X25581245Y-23210419D01*
X25618039Y-23241754D01*
X25648418Y-23260416D01*
X25671780Y-23268198D01*
X25671780Y-23041610D01*
X25674846Y-23007415D01*
X25685415Y-22985358D01*
X25705538Y-22973343D01*
X25737269Y-22969275D01*
X25742714Y-22969220D01*
X25768369Y-22970995D01*
X25789198Y-22975528D01*
X25796472Y-22978949D01*
X25809693Y-22996945D01*
X25816673Y-23023491D01*
X25817403Y-23053267D01*
X25811872Y-23080950D01*
X25800072Y-23101217D01*
X25796703Y-23104103D01*
X25776597Y-23111886D01*
X25749091Y-23114436D01*
X25720320Y-23112049D01*
X25696420Y-23105026D01*
X25687020Y-23098760D01*
X25677165Y-23084076D01*
X25672565Y-23062619D01*
X25671780Y-23041610D01*
X25671780Y-23268198D01*
X25691337Y-23274712D01*
X25739940Y-23280598D01*
X25787489Y-23277626D01*
X25812800Y-23271372D01*
X25847740Y-23255462D01*
X25883354Y-23232649D01*
X25914415Y-23206721D01*
X25934670Y-23183079D01*
X25949910Y-23159764D01*
X26100405Y-23159742D01*
X26250900Y-23159720D01*
X26250900Y-23359949D01*
X26250900Y-23560179D01*
X26199274Y-23611409D01*
X26147648Y-23662640D01*
X25995394Y-23662640D01*
X25843141Y-23662640D01*
X25599345Y-23418037D01*
X25548317Y-23367141D01*
X25499843Y-23319372D01*
X25455128Y-23275873D01*
X25415376Y-23237791D01*
X25381791Y-23206271D01*
X25355576Y-23182459D01*
X25337937Y-23167500D01*
X25331030Y-23162767D01*
X25311223Y-23157876D01*
X25280046Y-23154387D01*
X25241304Y-23152300D01*
X25198805Y-23151615D01*
X25156352Y-23152332D01*
X25117751Y-23154452D01*
X25086809Y-23157974D01*
X25067650Y-23162757D01*
X25055980Y-23170843D01*
X25035308Y-23188336D01*
X25007263Y-23213726D01*
X24973477Y-23245501D01*
X24935579Y-23282152D01*
X24895202Y-23322168D01*
X24890801Y-23326587D01*
X24738473Y-23479760D01*
X24699893Y-23479760D01*
X24655546Y-23486729D01*
X24610230Y-23506160D01*
X24567086Y-23535842D01*
X24529258Y-23573563D01*
X24499887Y-23617109D01*
X24497148Y-23622483D01*
X24483860Y-23662728D01*
X24478298Y-23709894D01*
X24478298Y-23709894D01*
G36*
X29686281Y-23048269D02*
X29686404Y-23129115D01*
X29686772Y-23208284D01*
X29687385Y-23284239D01*
X29688244Y-23355445D01*
X29689349Y-23420365D01*
X29690700Y-23477465D01*
X29692299Y-23525207D01*
X29694145Y-23562058D01*
X29696239Y-23586480D01*
X29698164Y-23596210D01*
X29707523Y-23610354D01*
X29725892Y-23632333D01*
X29751089Y-23659983D01*
X29780928Y-23691135D01*
X29813226Y-23723624D01*
X29845798Y-23755284D01*
X29876462Y-23783948D01*
X29903032Y-23807450D01*
X29923326Y-23823624D01*
X29923740Y-23823873D01*
X29923740Y-23506870D01*
X29923740Y-23042021D01*
X29923740Y-22577172D01*
X29974971Y-22525546D01*
X30026201Y-22473920D01*
X30205284Y-22473920D01*
X30384368Y-22473920D01*
X30435994Y-22525151D01*
X30459886Y-22549158D01*
X30474964Y-22566121D01*
X30483256Y-22579706D01*
X30486788Y-22593580D01*
X30487588Y-22611409D01*
X30487598Y-22618496D01*
X30486783Y-22643493D01*
X30482934Y-22658576D01*
X30473893Y-22669043D01*
X30464261Y-22675850D01*
X30439593Y-22697243D01*
X30414157Y-22727845D01*
X30391857Y-22762361D01*
X30377080Y-22794102D01*
X30366200Y-22846892D01*
X30369004Y-22901126D01*
X30384555Y-22953952D01*
X30411916Y-23002517D01*
X30450151Y-23043966D01*
X30462309Y-23053635D01*
X30487200Y-23072090D01*
X30487410Y-23285259D01*
X30487620Y-23498427D01*
X30436389Y-23550054D01*
X30385159Y-23601680D01*
X30202279Y-23601680D01*
X30019400Y-23601680D01*
X29971570Y-23554275D01*
X29923740Y-23506870D01*
X29923740Y-23823873D01*
X29933761Y-23829902D01*
X29948790Y-23832566D01*
X29976633Y-23834704D01*
X30015005Y-23836331D01*
X30061622Y-23837460D01*
X30114200Y-23838104D01*
X30170456Y-23838278D01*
X30228103Y-23837995D01*
X30284860Y-23837270D01*
X30338440Y-23836114D01*
X30386561Y-23834543D01*
X30426937Y-23832570D01*
X30457286Y-23830209D01*
X30475321Y-23827472D01*
X30477852Y-23826642D01*
X30492898Y-23816961D01*
X30515850Y-23798378D01*
X30533340Y-23782921D01*
X30533340Y-22866350D01*
X30536407Y-22832155D01*
X30546975Y-22810098D01*
X30567098Y-22798083D01*
X30598829Y-22794015D01*
X30604274Y-22793960D01*
X30629929Y-22795735D01*
X30650758Y-22800268D01*
X30658032Y-22803689D01*
X30671253Y-22821685D01*
X30678233Y-22848231D01*
X30678963Y-22878007D01*
X30673432Y-22905690D01*
X30661632Y-22925957D01*
X30658262Y-22928843D01*
X30638157Y-22936626D01*
X30610651Y-22939176D01*
X30581880Y-22936789D01*
X30557980Y-22929766D01*
X30548580Y-22923500D01*
X30538725Y-22908816D01*
X30534125Y-22887359D01*
X30533340Y-22866350D01*
X30533340Y-23782921D01*
X30544458Y-23773095D01*
X30576473Y-23743309D01*
X30609647Y-23711223D01*
X30641728Y-23679034D01*
X30670469Y-23648944D01*
X30693620Y-23623152D01*
X30708931Y-23603858D01*
X30713464Y-23596210D01*
X30716491Y-23585599D01*
X30718913Y-23568633D01*
X30720785Y-23543881D01*
X30722161Y-23509913D01*
X30723095Y-23465298D01*
X30723642Y-23408606D01*
X30723854Y-23338405D01*
X30723862Y-23321890D01*
X30723884Y-23072090D01*
X30747199Y-23056850D01*
X30769987Y-23037192D01*
X30794668Y-23008443D01*
X30817390Y-22975628D01*
X30834304Y-22943772D01*
X30834851Y-22942478D01*
X30843102Y-22910573D01*
X30846245Y-22871096D01*
X30844283Y-22830835D01*
X30837214Y-22796575D01*
X30834851Y-22790222D01*
X30818280Y-22758523D01*
X30795731Y-22725645D01*
X30771056Y-22696613D01*
X30748104Y-22676452D01*
X30747199Y-22675850D01*
X30723884Y-22660610D01*
X30723862Y-22586811D01*
X30723035Y-22552219D01*
X30720839Y-22521187D01*
X30717665Y-22498389D01*
X30715844Y-22491561D01*
X30707382Y-22478225D01*
X30689789Y-22456749D01*
X30665185Y-22429273D01*
X30635692Y-22397932D01*
X30603432Y-22364867D01*
X30570524Y-22332214D01*
X30539092Y-22302112D01*
X30511256Y-22276699D01*
X30489138Y-22258113D01*
X30474858Y-22248492D01*
X30474530Y-22248345D01*
X30459263Y-22245117D01*
X30431080Y-22242413D01*
X30392295Y-22240234D01*
X30345223Y-22238582D01*
X30292179Y-22237456D01*
X30235477Y-22236859D01*
X30177433Y-22236791D01*
X30120360Y-22237254D01*
X30066574Y-22238248D01*
X30018390Y-22239776D01*
X29978121Y-22241838D01*
X29948083Y-22244435D01*
X29930591Y-22247568D01*
X29929210Y-22248076D01*
X29914589Y-22257692D01*
X29892195Y-22276563D01*
X29864232Y-22302424D01*
X29832902Y-22333011D01*
X29800408Y-22366057D01*
X29768954Y-22399298D01*
X29740742Y-22430467D01*
X29717975Y-22457299D01*
X29702857Y-22477529D01*
X29698444Y-22485385D01*
X29696138Y-22498544D01*
X29694073Y-22525383D01*
X29692250Y-22564365D01*
X29690669Y-22613956D01*
X29689329Y-22672619D01*
X29688233Y-22738819D01*
X29687379Y-22811019D01*
X29686769Y-22887685D01*
X29686403Y-22967280D01*
X29686281Y-23048269D01*
X29686281Y-23048269D01*
X29686281Y-23048269D01*
G37*
X29686281Y-23048269D02*
X29686404Y-23129115D01*
X29686772Y-23208284D01*
X29687385Y-23284239D01*
X29688244Y-23355445D01*
X29689349Y-23420365D01*
X29690700Y-23477465D01*
X29692299Y-23525207D01*
X29694145Y-23562058D01*
X29696239Y-23586480D01*
X29698164Y-23596210D01*
X29707523Y-23610354D01*
X29725892Y-23632333D01*
X29751089Y-23659983D01*
X29780928Y-23691135D01*
X29813226Y-23723624D01*
X29845798Y-23755284D01*
X29876462Y-23783948D01*
X29903032Y-23807450D01*
X29923326Y-23823624D01*
X29923740Y-23823873D01*
X29923740Y-23506870D01*
X29923740Y-23042021D01*
X29923740Y-22577172D01*
X29974971Y-22525546D01*
X30026201Y-22473920D01*
X30205284Y-22473920D01*
X30384368Y-22473920D01*
X30435994Y-22525151D01*
X30459886Y-22549158D01*
X30474964Y-22566121D01*
X30483256Y-22579706D01*
X30486788Y-22593580D01*
X30487588Y-22611409D01*
X30487598Y-22618496D01*
X30486783Y-22643493D01*
X30482934Y-22658576D01*
X30473893Y-22669043D01*
X30464261Y-22675850D01*
X30439593Y-22697243D01*
X30414157Y-22727845D01*
X30391857Y-22762361D01*
X30377080Y-22794102D01*
X30366200Y-22846892D01*
X30369004Y-22901126D01*
X30384555Y-22953952D01*
X30411916Y-23002517D01*
X30450151Y-23043966D01*
X30462309Y-23053635D01*
X30487200Y-23072090D01*
X30487410Y-23285259D01*
X30487620Y-23498427D01*
X30436389Y-23550054D01*
X30385159Y-23601680D01*
X30202279Y-23601680D01*
X30019400Y-23601680D01*
X29971570Y-23554275D01*
X29923740Y-23506870D01*
X29923740Y-23823873D01*
X29933761Y-23829902D01*
X29948790Y-23832566D01*
X29976633Y-23834704D01*
X30015005Y-23836331D01*
X30061622Y-23837460D01*
X30114200Y-23838104D01*
X30170456Y-23838278D01*
X30228103Y-23837995D01*
X30284860Y-23837270D01*
X30338440Y-23836114D01*
X30386561Y-23834543D01*
X30426937Y-23832570D01*
X30457286Y-23830209D01*
X30475321Y-23827472D01*
X30477852Y-23826642D01*
X30492898Y-23816961D01*
X30515850Y-23798378D01*
X30533340Y-23782921D01*
X30533340Y-22866350D01*
X30536407Y-22832155D01*
X30546975Y-22810098D01*
X30567098Y-22798083D01*
X30598829Y-22794015D01*
X30604274Y-22793960D01*
X30629929Y-22795735D01*
X30650758Y-22800268D01*
X30658032Y-22803689D01*
X30671253Y-22821685D01*
X30678233Y-22848231D01*
X30678963Y-22878007D01*
X30673432Y-22905690D01*
X30661632Y-22925957D01*
X30658262Y-22928843D01*
X30638157Y-22936626D01*
X30610651Y-22939176D01*
X30581880Y-22936789D01*
X30557980Y-22929766D01*
X30548580Y-22923500D01*
X30538725Y-22908816D01*
X30534125Y-22887359D01*
X30533340Y-22866350D01*
X30533340Y-23782921D01*
X30544458Y-23773095D01*
X30576473Y-23743309D01*
X30609647Y-23711223D01*
X30641728Y-23679034D01*
X30670469Y-23648944D01*
X30693620Y-23623152D01*
X30708931Y-23603858D01*
X30713464Y-23596210D01*
X30716491Y-23585599D01*
X30718913Y-23568633D01*
X30720785Y-23543881D01*
X30722161Y-23509913D01*
X30723095Y-23465298D01*
X30723642Y-23408606D01*
X30723854Y-23338405D01*
X30723862Y-23321890D01*
X30723884Y-23072090D01*
X30747199Y-23056850D01*
X30769987Y-23037192D01*
X30794668Y-23008443D01*
X30817390Y-22975628D01*
X30834304Y-22943772D01*
X30834851Y-22942478D01*
X30843102Y-22910573D01*
X30846245Y-22871096D01*
X30844283Y-22830835D01*
X30837214Y-22796575D01*
X30834851Y-22790222D01*
X30818280Y-22758523D01*
X30795731Y-22725645D01*
X30771056Y-22696613D01*
X30748104Y-22676452D01*
X30747199Y-22675850D01*
X30723884Y-22660610D01*
X30723862Y-22586811D01*
X30723035Y-22552219D01*
X30720839Y-22521187D01*
X30717665Y-22498389D01*
X30715844Y-22491561D01*
X30707382Y-22478225D01*
X30689789Y-22456749D01*
X30665185Y-22429273D01*
X30635692Y-22397932D01*
X30603432Y-22364867D01*
X30570524Y-22332214D01*
X30539092Y-22302112D01*
X30511256Y-22276699D01*
X30489138Y-22258113D01*
X30474858Y-22248492D01*
X30474530Y-22248345D01*
X30459263Y-22245117D01*
X30431080Y-22242413D01*
X30392295Y-22240234D01*
X30345223Y-22238582D01*
X30292179Y-22237456D01*
X30235477Y-22236859D01*
X30177433Y-22236791D01*
X30120360Y-22237254D01*
X30066574Y-22238248D01*
X30018390Y-22239776D01*
X29978121Y-22241838D01*
X29948083Y-22244435D01*
X29930591Y-22247568D01*
X29929210Y-22248076D01*
X29914589Y-22257692D01*
X29892195Y-22276563D01*
X29864232Y-22302424D01*
X29832902Y-22333011D01*
X29800408Y-22366057D01*
X29768954Y-22399298D01*
X29740742Y-22430467D01*
X29717975Y-22457299D01*
X29702857Y-22477529D01*
X29698444Y-22485385D01*
X29696138Y-22498544D01*
X29694073Y-22525383D01*
X29692250Y-22564365D01*
X29690669Y-22613956D01*
X29689329Y-22672619D01*
X29688233Y-22738819D01*
X29687379Y-22811019D01*
X29686769Y-22887685D01*
X29686403Y-22967280D01*
X29686281Y-23048269D01*
X29686281Y-23048269D01*
G36*
X28537627Y-22360716D02*
X28544953Y-22413802D01*
X28565720Y-22464866D01*
X28584067Y-22492662D01*
X28603838Y-22515596D01*
X28625284Y-22536411D01*
X28633509Y-22543095D01*
X28658400Y-22561550D01*
X28658610Y-22974935D01*
X28658820Y-23388320D01*
X28704540Y-23388320D01*
X28704540Y-22355810D01*
X28707607Y-22321615D01*
X28718175Y-22299558D01*
X28738298Y-22287543D01*
X28770029Y-22283475D01*
X28775474Y-22283420D01*
X28801129Y-22285195D01*
X28821958Y-22289728D01*
X28829232Y-22293149D01*
X28842453Y-22311145D01*
X28849433Y-22337691D01*
X28850163Y-22367467D01*
X28844632Y-22395150D01*
X28832832Y-22415417D01*
X28829462Y-22418303D01*
X28809357Y-22426086D01*
X28781851Y-22428636D01*
X28753080Y-22426249D01*
X28729180Y-22419226D01*
X28719780Y-22412960D01*
X28709925Y-22398276D01*
X28705325Y-22376819D01*
X28704540Y-22355810D01*
X28704540Y-23388320D01*
X28776930Y-23388320D01*
X28895040Y-23388320D01*
X28895062Y-22974935D01*
X28895084Y-22561550D01*
X28918399Y-22546310D01*
X28941187Y-22526652D01*
X28965868Y-22497903D01*
X28988590Y-22465088D01*
X29005504Y-22433232D01*
X29006051Y-22431938D01*
X29016508Y-22390665D01*
X29017714Y-22343499D01*
X29009960Y-22296425D01*
X28997865Y-22263596D01*
X28966981Y-22215460D01*
X28925533Y-22172507D01*
X28878159Y-22139409D01*
X28870843Y-22135591D01*
X28821323Y-22118942D01*
X28767847Y-22114796D01*
X28715173Y-22123155D01*
X28683017Y-22135591D01*
X28631533Y-22168513D01*
X28590693Y-22209505D01*
X28561056Y-22256548D01*
X28543181Y-22307625D01*
X28537627Y-22360716D01*
X28537627Y-22360716D01*
X28537627Y-22360716D01*
G37*
X28537627Y-22360716D02*
X28544953Y-22413802D01*
X28565720Y-22464866D01*
X28584067Y-22492662D01*
X28603838Y-22515596D01*
X28625284Y-22536411D01*
X28633509Y-22543095D01*
X28658400Y-22561550D01*
X28658610Y-22974935D01*
X28658820Y-23388320D01*
X28704540Y-23388320D01*
X28704540Y-22355810D01*
X28707607Y-22321615D01*
X28718175Y-22299558D01*
X28738298Y-22287543D01*
X28770029Y-22283475D01*
X28775474Y-22283420D01*
X28801129Y-22285195D01*
X28821958Y-22289728D01*
X28829232Y-22293149D01*
X28842453Y-22311145D01*
X28849433Y-22337691D01*
X28850163Y-22367467D01*
X28844632Y-22395150D01*
X28832832Y-22415417D01*
X28829462Y-22418303D01*
X28809357Y-22426086D01*
X28781851Y-22428636D01*
X28753080Y-22426249D01*
X28729180Y-22419226D01*
X28719780Y-22412960D01*
X28709925Y-22398276D01*
X28705325Y-22376819D01*
X28704540Y-22355810D01*
X28704540Y-23388320D01*
X28776930Y-23388320D01*
X28895040Y-23388320D01*
X28895062Y-22974935D01*
X28895084Y-22561550D01*
X28918399Y-22546310D01*
X28941187Y-22526652D01*
X28965868Y-22497903D01*
X28988590Y-22465088D01*
X29005504Y-22433232D01*
X29006051Y-22431938D01*
X29016508Y-22390665D01*
X29017714Y-22343499D01*
X29009960Y-22296425D01*
X28997865Y-22263596D01*
X28966981Y-22215460D01*
X28925533Y-22172507D01*
X28878159Y-22139409D01*
X28870843Y-22135591D01*
X28821323Y-22118942D01*
X28767847Y-22114796D01*
X28715173Y-22123155D01*
X28683017Y-22135591D01*
X28631533Y-22168513D01*
X28590693Y-22209505D01*
X28561056Y-22256548D01*
X28543181Y-22307625D01*
X28537627Y-22360716D01*
X28537627Y-22360716D01*
D11*
X27957780Y-17317720D02*
X25524460Y-19738340D01*
D14*
X28599237Y-18481040D02*
G75*
G03X28599237Y-18481040I-1802237J0D01*
G01*
D16*
X20662900Y-20421600D02*
G75*
G03X20662900Y-20421600I-127000J0D01*
G01*
D14*
X20408900Y-17119600D02*
G75*
G02X22694900Y-17119600I1143000J-1143000D01*
G01*
X21678900Y-16357600D02*
X21678900Y-16484600D01*
X21678900Y-16484600D02*
X21297900Y-16484600D01*
X21297900Y-16484600D02*
X21297900Y-16357600D01*
X21297900Y-16357600D02*
X21678900Y-16357600D01*
X21551900Y-17881600D02*
X20916900Y-17881600D01*
X21678900Y-17754600D02*
X20789900Y-17754600D01*
X20789900Y-17754600D02*
X20789900Y-18135600D01*
X20789900Y-18135600D02*
X21678900Y-18135600D01*
X21678900Y-18135600D02*
X21678900Y-17754600D01*
X20281900Y-17754600D02*
X20281900Y-17373600D01*
X20281900Y-17373600D02*
X20154900Y-17373600D01*
X20154900Y-17373600D02*
X20154900Y-17754600D01*
X20281900Y-17373600D02*
X20281900Y-17500600D01*
X20281900Y-17246600D02*
X20154900Y-17627600D01*
X20281900Y-17373600D02*
X20281900Y-17500600D01*
X20408900Y-17246600D02*
X20408900Y-17754600D01*
X20408900Y-17754600D02*
X20027900Y-17754600D01*
X20027900Y-17754600D02*
X20027900Y-17246600D01*
X22440900Y-17119600D02*
X22440900Y-16611600D01*
X22440900Y-16611600D02*
X22313900Y-16611600D01*
X22313900Y-16611600D02*
X22313900Y-17119600D01*
X20937509Y-20421600D02*
G75*
G03X20937509Y-20421600I-401609J0D01*
G01*
X20535900Y-19913600D02*
X20408900Y-17881600D01*
X22440900Y-20421600D02*
X22440900Y-20802600D01*
X22440900Y-20802600D02*
X21932900Y-20802600D01*
X21932900Y-20802600D02*
X21932900Y-20548600D01*
X22948900Y-17246600D02*
X20027900Y-17246600D01*
X22440900Y-20421600D02*
X22694900Y-17373600D01*
X22440900Y-20421600D02*
X21043900Y-20421600D01*
X23456900Y-20802600D02*
X19392900Y-16865600D01*
X23583900Y-16738600D02*
X19392900Y-20929600D01*
D12*
X23739100Y-22175000D02*
X19319500Y-22175000D01*
X19319500Y-22073400D02*
X23688300Y-22073400D01*
X23739100Y-21870200D02*
X19268700Y-21870200D01*
X23739100Y-21717800D02*
X19319500Y-21717800D01*
X19268700Y-21971800D02*
X23688300Y-21971800D01*
X19268700Y-21819400D02*
X23688300Y-21819400D01*
X23739100Y-21667000D02*
X19268700Y-21667000D01*
X19268700Y-21565400D02*
X23688300Y-21565400D01*
X19217900Y-22276600D02*
X23789900Y-22276600D01*
X23789900Y-22276600D02*
X23789900Y-21514600D01*
X23789900Y-21514600D02*
X19217900Y-21514600D01*
X19217900Y-21514600D02*
X19217900Y-22276600D01*
D14*
X27751588Y-19229768D02*
X27751588Y-17529768D01*
X27180160Y-17529768D01*
X27037302Y-17610720D01*
X26965874Y-17691672D01*
X26894445Y-17853577D01*
X26894445Y-18096434D01*
X26965874Y-18258339D01*
X27037302Y-18339291D01*
X27180160Y-18420244D01*
X27751588Y-18420244D01*
X26251588Y-19229768D02*
X26251588Y-17529768D01*
X26251588Y-18177387D02*
X26108731Y-18096434D01*
X25823017Y-18096434D01*
X25680160Y-18177387D01*
X25608731Y-18258339D01*
X25537302Y-18420244D01*
X25537302Y-18905958D01*
X25608731Y-19067863D01*
X25680160Y-19148815D01*
X25823017Y-19229768D01*
X26108731Y-19229768D01*
X26251588Y-19148815D01*
M02*
